<?xml version="1.0" encoding="utf-8"?>
<!-- Generator: Adobe Illustrator 23.0.3, SVG Export Plug-In . SVG Version: 6.00 Build 0)  -->
<svg version="1.1" id="Слой_1" xmlns="http://www.w3.org/2000/svg" xmlns:xlink="http://www.w3.org/1999/xlink" x="0px" y="0px"
	 viewBox="0 0 817.3 836.4" style="enable-background:new 0 0 817.3 836.4;" xml:space="preserve">
<style type="text/css">
	.st0{opacity:5.000000e-02;fill:#F4F7FA;enable-background:new    ;}
	.st1{fill:#FFAD4B;}
	.st2{fill:#FFFFFF;}
	.st3{fill:#FA9012;}
	.st4{clip-path:url(#SVGID_2_);}
	.st5{opacity:0.5;}
	.st6{fill:none;}
	.st7{clip-path:url(#SVGID_4_);}
	.st8{fill:#FFAD4B;stroke:#FFFFFF;stroke-miterlimit:10;}
	.st9{fill:#255DBA;}
	.st10{fill:#255DBA;stroke:#FFFFFF;stroke-miterlimit:10;}
	.st11{opacity:0.3;fill:#FFAD4B;stroke:#FFFFFF;stroke-miterlimit:10;enable-background:new    ;}
	.st12{opacity:0.2;}
</style>
<title>6</title>
<g>
	<g>
		<g id="Metaphor_illustration">
			<path class="st0" d="M421.4,38.4C212.1,32.3,30.9,182,3.5,378.5c-29.9,214.8,134.8,408.1,337.6,439
				C593.3,856,837.9,633.2,816,391.6C799.4,209.6,634.1,44.6,421.4,38.4z"/>
			<polygon class="st1" points="726.1,722 241.4,744.4 241.4,64.8 726.1,90.8 			"/>
			<path class="st1" d="M709.2,704.1l-448.3,19.4V85.8l448.3,22.7V704.1z M264.4,719.8l441.7-18.9V111.8L264.4,89.6V719.8z"/>
			<polygon class="st1" points="707.7,639 262.6,653.7 262.6,650.1 707.7,635.6 			"/>
			<polygon class="st1" points="494.4,711.7 491.1,711.8 491.1,644.4 494.4,644.3 			"/>
			<polygon class="st1" points="707.7,671.6 492.7,679.8 492.7,676.3 707.7,668.2 			"/>
			<path class="st2" d="M676.4,580.1l-371.5,8.8V139.8l371.5,16L676.4,580.1z M308.4,585.2l364.9-8.4V159l-365-15.5L308.4,585.2z"/>
			<polygon class="st2" points="542.9,385.8 306.6,384.2 306.6,380.6 542.9,382.3 			"/>
			<polygon class="st2" points="544.5,541.2 541.3,541.2 541.3,327 544.5,327 			"/>
			<polygon class="st2" points="544.5,253.3 541.3,253.2 541.3,151.6 544.5,151.8 			"/>
			<path class="st2" d="M639.8,496.4l-258.9,2.7c-4.2,0-7.6-3.5-7.5-7.7c0,0,0-0.1,0-0.1V382.8l15,0.1v100.4l251.4-2L639.8,496.4z"
				/>
			<path class="st2" d="M646.8,577.7l-13.8,0.3V285.2l-241.1-5.4c-4.2-0.2-7.5-3.8-7.5-8V145l14.9,0.6v118.7l240.6,6
				c3.8,0.1,6.9,3.5,6.9,7.7L646.8,577.7z"/>
			<path class="st2" d="M674.8,359.7l-95.8-1c-4.1-0.2-7.2-3.6-7.1-7.7V153l14.1,0.6v190l88.9,1.2L674.8,359.7z"/>
			<polygon class="st2" points="551.9,328.9 533.8,328.6 533.8,325.1 551.9,325.4 			"/>
			<polygon class="st2" points="551.9,542.8 533.8,543.1 533.8,539.6 551.9,539.3 			"/>
			<polygon class="st2" points="551.9,255.2 533.8,254.8 533.8,251.3 551.9,251.8 			"/>
			<path class="st3" d="M268.2,444.6c29,1.6,84.2-114.2,45.6-175.9c-16.1-25.7-40.4-29-50.7-61.8c-9.2-29.2,6.1-39.5,1.3-72.1
				c-6.8-45.8-47.4-95.4-84.7-91.6C161,45.2,140,60.9,133.9,83.2c-4.9,17.8,9.9,36,4.7,39.6c-4.3,3-13-9.1-20.6-6.9
				c-11.3,3.3-19,37.5-8.8,66.1c17.4,49,76.4,50.7,78.8,86c1.5,22.5-21.9,29.5-18,52.7c3.4,20.4,23.1,24.3,48.3,49.6
				C257.7,409.9,252.7,443.8,268.2,444.6z"/>
			<g>
				<defs>
					<path id="SVGID_1_" d="M268.2,444.6c29,1.6,84.2-114.2,45.6-175.9c-16.1-25.7-40.4-29-50.7-61.8c-9.2-29.2,6.1-39.5,1.3-72.1
						c-6.8-45.8-47.4-95.4-84.7-91.6C161,45.2,140,60.9,133.9,83.2c-4.9,17.8,9.9,36,4.7,39.6c-4.3,3-13-9.1-20.6-6.9
						c-11.3,3.3-19,37.5-8.8,66.1c17.4,49,76.4,50.7,78.8,86c1.5,22.5-21.9,29.5-18,52.7c3.4,20.4,23.1,24.3,48.3,49.6
						C257.7,409.9,252.7,443.8,268.2,444.6z"/>
				</defs>
				<clipPath id="SVGID_2_">
					<use xlink:href="#SVGID_1_"  style="overflow:visible;"/>
				</clipPath>
				<g class="st4">
					<g class="st5">
						<path class="st1" d="M260.9,470.1c0.8,0.2,1.6-0.2,1.8-1c0.1-0.4,0.1-0.8-0.1-1.1c0.3-2.4,0.7-4.7,1.2-7
							c3.8-18.3,13.7-67,3.8-144.4C255.1,219.2,216.3,113,152.1,0.9c-0.4-0.7-1.2-1-1.9-0.7c-0.7,0.4-1,1.2-0.7,1.9
							c0,0.1,0.1,0.1,0.1,0.2C218.5,122.8,293.8,300,260.9,460.4c-1.5,7.3-1.8,8.6-0.5,9.4C260.6,470,260.7,470,260.9,470.1z"/>
						<path class="st1" d="M241.1,213.4c0.8,0.2,1.6-0.3,1.8-1c0.2-0.7-0.2-1.5-0.9-1.7c-62.2-21.8-99.1-44-119.1-58.9
							c-21.7-16.1-28.7-27.2-28.8-27.3c-0.4-0.7-1.3-0.9-2-0.5c0,0,0,0,0,0c-0.7,0.4-0.9,1.3-0.5,2c0,0,0,0,0,0
							c0.3,0.5,7.3,11.5,29.3,27.9C141,168.9,178.3,191.4,241.1,213.4L241.1,213.4z"/>
						<path class="st1" d="M218.5,143.4c0.3,0.1,0.6,0.1,0.9,0c16.9-6.2,28.6-27.2,34.7-62.4c2.8-16.8,4.2-33.7,4.1-50.7
							c-0.1-0.8-0.8-1.4-1.6-1.3c-0.7,0.1-1.3,0.6-1.3,1.4c0,1,1.2,96.4-36.9,110.3c-0.8,0.3-1.1,1.1-0.9,1.9
							C217.7,143,218.1,143.3,218.5,143.4z"/>
						<path class="st1" d="M267.7,335.5c0.4,0.1,0.9,0.1,1.2-0.2c23.4-16.2,34.8-44.6,40.1-65.5c3.5-13.7,5.6-27.7,6.1-41.9
							c0-0.8-0.6-1.5-1.4-1.5s-1.5,0.6-1.5,1.4c0,0,0,0,0,0c-0.5,13.9-2.5,27.7-6,41.2c-5.2,20.4-16.3,48.1-39,63.8
							c-0.6,0.5-0.8,1.3-0.4,2C267.1,335.2,267.4,335.4,267.7,335.5z"/>
					</g>
				</g>
			</g>
			<path class="st6" d="M268.2,444.6c29,1.6,84.2-114.2,45.6-175.9c-16.1-25.7-40.4-29-50.7-61.8c-9.2-29.2,6.1-39.5,1.3-72.1
				c-6.8-45.8-47.4-95.4-84.7-91.6C161,45.2,140,60.9,133.9,83.2c-4.9,17.8,9.9,36,4.7,39.6c-4.3,3-13-9.1-20.6-6.9
				c-11.3,3.3-19,37.5-8.8,66.1c17.4,49,76.4,50.7,78.8,86c1.5,22.5-21.9,29.5-18,52.7c3.4,20.4,23.1,24.3,48.3,49.6
				C257.7,409.9,252.7,443.8,268.2,444.6z"/>
			<path class="st3" d="M246,484c11.7-57,10.1-101.2,6.6-130c-2.7-22.6-8.6-54.2-24.7-58.2c-7.7-1.9-12.1,3.9-20.2,1.6
				c-15.2-4.5-14.8-29.8-24.4-48.1c-16.4-31.5-69.2-56.6-107.1-38c-45.6,22.4-50.4,98.9-25.9,122.5c14.5,14,40.5,10.5,41.9,20.6
				S67.7,370,65.8,386.4c-1.8,17,23.6,32.3,25.2,33.3c30.9,18.2,55.3-0.6,89.2,7.8C198.6,432,222.6,445.2,246,484z"/>
			<g>
				<defs>
					<path id="SVGID_3_" d="M246,484c11.7-57,10.1-101.2,6.6-130c-2.7-22.6-8.6-54.2-24.7-58.2c-7.7-1.9-12.1,3.9-20.2,1.6
						c-15.2-4.5-14.8-29.8-24.4-48.1c-16.4-31.5-69.2-56.6-107.1-38c-45.6,22.4-50.4,98.9-25.9,122.5c14.5,14,40.5,10.5,41.9,20.6
						S67.7,370,65.8,386.4c-1.8,17,23.6,32.3,25.2,33.3c30.9,18.2,55.3-0.6,89.2,7.8C198.6,432,222.6,445.2,246,484z"/>
				</defs>
				<clipPath id="SVGID_4_">
					<use xlink:href="#SVGID_3_"  style="overflow:visible;"/>
				</clipPath>
				<g class="st7">
					<g>
						<path class="st1" d="M252.4,530.1h-0.9c-5.1-136.4-90.5-255-228.6-317.3l0.4-0.8c65.4,29.5,121.1,73.4,161,127
							C226.3,395.3,249.8,461.4,252.4,530.1z"/>
						<path class="st1" d="M294.2,332.2c-25,27.7-49.3,81.9-54.1,120.7l-0.9-0.1c4.9-39,29.3-93.3,54.4-121.2L294.2,332.2z"/>
						<path class="st1" d="M251.1,503.3l-0.8,0.3c-6.4-19.3-22.2-34.7-47.2-45.6c-18.3-8-41-13.6-67.4-16.5l0.1-0.9
							c26.5,2.9,49.2,8.5,67.6,16.6C228.6,468.2,244.6,483.8,251.1,503.3z"/>
						<path class="st1" d="M178.4,331.6l-0.8,0.3c-13.9-35.8-4.4-75,5.9-101.6l0.8,0.3C174,257.1,164.6,296.1,178.4,331.6z"/>
						<path class="st1" d="M116.8,269l-0.4,0.8c-38.2-20.3-83-13-106.3-6.8l-0.2-0.9C33.3,255.9,78.3,248.5,116.8,269z"/>
					</g>
				</g>
			</g>
			<path class="st6" d="M246,484c11.7-57,10.1-101.2,6.6-130c-2.7-22.6-8.6-54.2-24.7-58.2c-7.7-1.9-12.1,3.9-20.2,1.6
				c-15.2-4.5-14.8-29.8-24.4-48.1c-16.4-31.5-69.2-56.6-107.1-38c-45.6,22.4-50.4,98.9-25.9,122.5c14.5,14,40.5,10.5,41.9,20.6
				S67.7,370,65.8,386.4c-1.8,17,23.6,32.3,25.2,33.3c30.9,18.2,55.3-0.6,89.2,7.8C198.6,432,222.6,445.2,246,484z"/>
			<path class="st1" d="M544.4,312.5l-461.1-8.1c-2.2,0-4.1,1.7-4.1,4c0,0,0,0.1,0,0.1V804c0,2.1,1.7,3.9,3.8,4c0.1,0,0.2,0,0.3,0
				l461.1-25.2c2.1-0.2,3.7-2,3.6-4.1V316.4C548,314.4,546.4,312.6,544.4,312.5z"/>
			<polygon class="st2" points="83.9,803.2 83.9,309.2 543.8,317 543.8,778.3 			"/>
			<polygon class="st8" points="525.1,745 105.3,765.4 105.3,345.3 525.1,350.2 			"/>
			<path class="st8" d="M483.8,548.8c0,92.7-71.6,171-162.1,175c-93,4.1-170.2-71.5-170.2-168.9s77.3-175.8,170.2-175.2
				C412.2,380.4,483.8,456,483.8,548.8z"/>
			<g>
				<path class="st1" d="M109,323.7c0,4.2-3.3,7.5-7.5,7.6c-0.1,0-0.1,0-0.2,0c-4.3-0.1-7.7-3.5-7.7-7.8c0-4.2,3.3-7.6,7.5-7.6
					c0.1,0,0.1,0,0.2,0C105.6,315.9,109,319.4,109,323.7z"/>
				<path class="st1" d="M535.3,330c0.1,3.8-2.8,7-6.6,7.1c0,0-0.1,0-0.1,0c-3.9-0.2-6.9-3.4-6.8-7.3c-0.1-3.8,2.8-7,6.6-7.1
					c0,0,0.1,0,0.1,0C532.4,322.9,535.4,326.1,535.3,330z"/>
			</g>
			<g>
				<path class="st1" d="M109,787.8c0,4.3-3.4,7.8-7.7,8.1c-4,0.3-7.4-2.8-7.7-6.7c0-0.2,0-0.4,0-0.6c0-4.3,3.4-7.8,7.7-8.1
					c4-0.2,7.4,2.8,7.6,6.8C109,787.4,109,787.6,109,787.8z"/>
				<path class="st1" d="M535.3,765.7c0.1,3.9-2.9,7.2-6.8,7.6c-3.6,0.1-6.7-2.8-6.8-6.4c0-0.2,0-0.3,0-0.5
					c-0.1-3.9,2.9-7.2,6.8-7.6c3.6-0.1,6.7,2.8,6.8,6.4C535.3,765.3,535.3,765.5,535.3,765.7z"/>
			</g>
			<path class="st9" d="M377,447c0,31.6-24.6,113.8-55.3,114.4c-30.9,0.6-56.2-82-56.2-114.1s25.3-58.1,56.2-57.9
				C352.4,389.6,377,415.4,377,447z"/>
			<path class="st9" d="M373.9,663c-25.9-15.7-80.6-79.3-64.5-106.9s95.9-7.9,121.4,8.1c25.3,15.8,33.2,50.5,17.7,77.6
				S399.6,678.6,373.9,663z"/>
			<path class="st10" d="M268.7,666.7C295.3,649,350,582.4,334,555.6s-98-4.3-125,13.2c-27.2,17.6-35.8,54.1-19,81.4
				S242,684.6,268.7,666.7z"/>
			<path class="st9" d="M368.2,550.9c0,26.6-20.7,48.7-46.5,49.3c-25.9,0.7-47.1-20.6-47.1-47.6s21.2-49,47.1-49.3
				C347.5,503,368.2,524.3,368.2,550.9z"/>
			<polygon class="st8" points="530.6,371.4 99.1,367.8 99.1,356.9 530.6,361.2 			"/>
			<polygon class="st8" points="530.6,397.3 99.1,395.4 99.1,384.5 530.6,387.1 			"/>
			<polygon class="st8" points="530.6,423.2 99.1,423 99.1,412.1 530.6,413 			"/>
			<polygon class="st8" points="530.6,449.1 99.1,450.5 99.1,439.7 530.6,438.9 			"/>
			<polygon class="st8" points="530.6,474.9 99.1,478.1 99.1,467.3 530.6,464.8 			"/>
			<polygon class="st8" points="530.6,500.8 99.1,505.7 99.1,494.9 530.6,490.6 			"/>
			<polygon class="st8" points="530.6,526.7 99.1,533.3 99.1,522.5 530.6,516.5 			"/>
			<polygon class="st8" points="530.6,552.6 99.1,560.9 99.1,550.1 530.6,542.4 			"/>
			<polygon class="st8" points="530.6,578.5 99.1,588.5 99.1,577.7 530.6,568.3 			"/>
			<polygon class="st8" points="530.6,604.3 99.1,616.1 99.1,605.2 530.6,594.2 			"/>
			<polygon class="st8" points="530.6,630.2 99.1,643.7 99.1,632.8 530.6,620 			"/>
			<polygon class="st8" points="530.6,656.1 99.1,671.3 99.1,660.4 530.6,645.9 			"/>
			<polygon class="st8" points="530.6,682 99.1,698.9 99.1,688 530.6,671.8 			"/>
			<polygon class="st8" points="530.6,707.9 99.1,726.5 99.1,715.6 530.6,697.7 			"/>
			<polygon class="st8" points="530.6,733.8 99.1,754 99.1,743.2 530.6,723.6 			"/>
			<path class="st11" d="M481.2,662.3c-56.3-45.4-131.3-15-161.8-67.2c-27.1-46.3,22-87-4.4-136.2c-32-59.5-122.2-34.2-171.9-104.4
				c-9.5-13.5-16.4-28.7-20.4-44.7L84,309.2v493.9l451-24.3C526.7,713.6,503.8,680.5,481.2,662.3z"/>
			<polygon class="st1" points="738.1,817.7 738.1,772.2 358.8,771.7 358.8,816.7 441.1,836.2 			"/>
			<polygon class="st1" points="737.2,668.3 737.2,674 762.5,674.2 756.9,668.4 			"/>
			<polygon class="st1" points="440.3,790.3 358.8,772.8 358.8,668.4 440.3,669.2 			"/>
			<path class="st1" d="M756.9,668.1l-18.8,0.4v104.9l-189,10.8l-78.3,4.5l-30.5,1.7V669.2l131.2-37.4l78.2-75.5L756.9,668.1z
				 M703.3,764.1V660.2L588.1,660v110L703.3,764.1L703.3,764.1z"/>
			<g class="st12">
				<polygon class="st1" points="758.8,668.5 652.7,557.4 649.5,554 646.3,557 568.5,631.8 438.3,668.5 420.4,673.5 420.4,676.3 
					440.3,676.3 440.3,674.5 571.1,637.7 649.8,562.1 751.4,668.5 				"/>
			</g>
			<polygon class="st3" points="649.5,548.1 652.7,551.5 760.1,663.9 762.9,666.8 762.9,674.2 762.5,674.2 757,668.4 649.8,556.3 
				571.1,631.8 441.4,670.3 420.4,676.1 420.4,667.7 438.3,662.7 568.5,626 646.3,551.2 			"/>
			<path class="st1" d="M702.1,661.7v101.1l-112.7,5.7V661.5L702.1,661.7z M696.1,753.1v-84.8l-27.1,0.1v86L696.1,753.1L696.1,753.1
				z M661.7,754.7v-86.3l-28,0.1v87.5L661.7,754.7L661.7,754.7z M626,756.3v-87.9l-29.1,0.1v89.1L626,756.3z"/>
			<path class="st1" d="M587.6,770.3V659.8l116.2,0.1v104.5L587.6,770.3z M591.2,663.3v103.3l109.2-5.6v-97.6L591.2,663.3z
				 M595.2,759.4v-92.7l32.6-0.1V758L595.2,759.4z M598.7,670.2v85.5l25.5-1.2v-84.4L598.7,670.2z M631.9,757.7v-91.1l31.6-0.1v89.8
				L631.9,757.7z M635.4,670.1V754l24.5-1v-82.9L635.4,670.1z M667.3,756.1v-89.6l30.6-0.1v88.3L667.3,756.1z M670.8,670v82.4
				l23.6-1.1V670L670.8,670z"/>
			<polygon class="st3" points="649.5,548.1 646.3,551.2 568.5,626 474.2,630.9 545.1,565.5 548.1,562.8 			"/>
			<polygon class="st1" points="500.6,722.6 540.5,722 540.5,810.4 500.6,812.6 			"/>
			<polygon class="st2" points="493.2,808.3 493.2,725.8 537.5,725.2 537.5,805 			"/>
			<polygon class="st1" points="470.8,814.9 470.8,712 549,711.3 549,809.9 540.5,810.4 540.5,722.2 500.6,722.8 500.6,813.2 			"/>
			<polygon class="st3" points="568.5,626 438.3,662.7 420.4,667.7 341,667.1 356.9,662.8 474.2,630.9 			"/>
			<polygon class="st3" points="420.4,676.1 341,674.3 341,667.1 420.4,667.7 			"/>
			<polygon class="st2" points="695.6,668.9 695.6,752.5 669.6,753.6 669.6,669 			"/>
			<polygon class="st2" points="625.5,669.1 625.5,755.6 597.5,756.9 597.5,669.2 			"/>
			<polygon class="st2" points="661.2,669 661.2,754 634.2,755.2 634.2,669.1 			"/>
			<polygon class="st1" points="470.8,814.8 549,809.3 567.2,829.8 470.8,834.2 			"/>
		</g>
	</g>
</g>
</svg>
