<?xml version="1.0" encoding="utf-8"?>
<!-- Generator: Adobe Illustrator 23.0.3, SVG Export Plug-In . SVG Version: 6.00 Build 0)  -->
<svg version="1.1" id="Слой_1" xmlns="http://www.w3.org/2000/svg" xmlns:xlink="http://www.w3.org/1999/xlink" x="0px" y="0px"
	 viewBox="0 0 849.3 868.4" style="enable-background:new 0 0 849.3 868.4;" xml:space="preserve">
<style type="text/css">
	.st0{opacity:5.000000e-02;fill:#F4F7FA;enable-background:new    ;}
	.st1{fill:#FA9012;}
	.st2{clip-path:url(#SVGID_2_);}
	.st3{opacity:0.5;}
	.st4{fill:#FFB65F;}
	.st5{fill:none;}
	.st6{clip-path:url(#SVGID_4_);}
	.st7{fill:#FFFFFF;}
	.st8{opacity:0.2;}
	.st9{opacity:0;fill:none;}
	.st10{opacity:0.81;fill:#FFAD4B;enable-background:new    ;}
	.st11{opacity:0.3;fill:#FFB65F;enable-background:new    ;}
	.st12{fill:#255DBA;}
	.st13{opacity:0.71;fill:#FFB65F;enable-background:new    ;}
</style>
<title>2</title>
<g>
	<g>
		<g id="Metaphor_illustration">
			<path class="st0" d="M418.8,74.6C211.7,68.6,32.4,216.8,5.3,411.2C-24.3,623.7,138.7,815,339.4,845.6
				C588.9,883.7,831,663.3,809.3,424.2C792.9,244,629.3,80.8,418.8,74.6z"/>
			<path class="st1" d="M485.1,636.3c-41.4,2.3-120.2-163-65.1-251c23-36.7,57.7-41.4,72.3-88.1c13.1-41.7-8.7-56.4-1.9-102.8
				C500.1,129,558,58.2,611.3,63.7c26.8,2.7,56.7,25.1,65.4,56.8c6.9,25.4-14.1,51.3-6.7,56.5c6.1,4.2,18.5-13,29.4-9.8
				c16.1,4.7,27.2,53.4,12.6,94.3c-24.9,69.9-109,72.4-112.5,122.8c-2.2,32.1,31.2,42.1,25.7,75.2c-4.8,29.1-32.9,34.7-68.9,70.7
				C500.1,586.7,507.3,635.1,485.1,636.3z"/>
			<g>
				<defs>
					<path id="SVGID_1_" d="M485.1,636.3c-41.4,2.3-120.2-163-65.1-251c23-36.7,57.7-41.4,72.3-88.1c13.1-41.7-8.7-56.4-1.9-102.8
						C500.1,129,558,58.2,611.3,63.7c26.8,2.7,56.7,25.1,65.4,56.8c6.9,25.4-14.1,51.3-6.7,56.5c6.1,4.2,18.5-13,29.4-9.8
						c16.1,4.7,27.2,53.4,12.6,94.3c-24.9,69.9-109,72.4-112.5,122.8c-2.2,32.1,31.2,42.1,25.7,75.2c-4.8,29.1-32.9,34.7-68.9,70.7
						C500.1,586.7,507.3,635.1,485.1,636.3z"/>
				</defs>
				<clipPath id="SVGID_2_">
					<use xlink:href="#SVGID_1_"  style="overflow:visible;"/>
				</clipPath>
				<g class="st2">
					<g class="st3">
						<path class="st4" d="M495.6,672.7c-1.1,0.3-2.3-0.3-2.6-1.4c-0.2-0.5-0.1-1.1,0.2-1.6c-0.4-3.4-1-6.7-1.8-10
							c-5.4-26.1-19.6-95.6-5.5-206c17.8-138.9,73.2-290.5,164.9-450.4c0.5-1,1.8-1.4,2.8-0.8s1.4,1.8,0.8,2.8c0,0,0,0.1,0,0.1
							C556,177.1,448.5,430,495.5,658.9c2.1,10.3,2.5,12.2,0.7,13.5C496,672.5,495.8,672.6,495.6,672.7z"/>
						<path class="st4" d="M523.8,306.4c-1.1,0.3-2.2-0.3-2.5-1.4c-0.3-1,0.3-2.1,1.3-2.5c88.8-31,141.5-62.9,170-84.1
							c30.9-23,41-38.8,41-38.9c0.5-1,1.8-1.4,2.8-0.8c1,0.5,1.4,1.8,0.8,2.8c0,0.1-0.1,0.1-0.1,0.2c-0.4,0.7-10.4,16.5-41.8,39.8
							C666.5,242.9,613.4,275.1,523.8,306.4L523.8,306.4z"/>
						<path class="st4" d="M556,206.6c-0.4,0.1-0.9,0.1-1.3,0c-24.2-8.9-40.8-38.8-49.5-89c-4-23.9-5.9-48.1-5.9-72.3
							c0-1.1,1-2.1,2.1-2c1.1,0,2.1,1,2,2.1c0,1.4-1.8,137.5,52.7,157.4c1.1,0.4,1.6,1.6,1.2,2.7C557.1,206,556.6,206.5,556,206.6
							L556,206.6z"/>
						<path class="st4" d="M485.8,480.7c-0.6,0.2-1.2,0.1-1.8-0.3c-33.4-23.2-49.6-63.6-57.3-93.5c-5-19.5-7.9-39.6-8.7-59.7
							c0.1-1.1,1-2,2.2-2c1,0.1,1.9,0.9,1.9,1.9c0.8,19.9,3.7,39.6,8.6,58.8c7.5,29.2,23.2,68.6,55.6,91.1c0.9,0.7,1.2,1.9,0.5,2.9
							C486.7,480.2,486.3,480.5,485.8,480.7z"/>
					</g>
				</g>
			</g>
			<path class="st5" d="M485.1,636.3c-41.4,2.3-120.2-163-65.1-251c23-36.7,57.7-41.4,72.3-88.1c13.1-41.7-8.7-56.4-1.9-102.8
				C500.1,129,558,58.2,611.3,63.7c26.8,2.7,56.7,25.1,65.4,56.8c6.9,25.4-14.1,51.3-6.7,56.5c6.1,4.2,18.5-13,29.4-9.8
				c16.1,4.7,27.2,53.4,12.6,94.3c-24.9,69.9-109,72.4-112.5,122.8c-2.2,32.1,31.2,42.1,25.7,75.2c-4.8,29.1-32.9,34.7-68.9,70.7
				C500.1,586.7,507.3,635.1,485.1,636.3z"/>
			<path class="st4" d="M577.4,551c-13.6-66-11.6-117.2-7.7-150.6c3.1-26.2,10-62.8,28.6-67.4c8.9-2.2,14,4.6,23.3,1.8
				c17.6-5.2,17.2-34.5,28.3-55.8c19-36.4,80.2-65.5,124-44c52.8,26,58.4,114.5,30,141.8C787.1,393,757,389,755.4,400.7
				S783.9,419,786,438c2.2,19.6-27.4,37.5-29.2,38.5c-35.8,21.1-64-0.7-103.3,9C632.2,490.8,604.4,506.1,577.4,551z"/>
			<path class="st1" d="M577.4,551c-13.6-66-11.6-117.2-7.7-150.6c3.1-26.2,10-62.8,28.6-67.4c8.9-2.2,14,4.6,23.3,1.8
				c17.6-5.2,17.2-34.5,28.3-55.8c19-36.4,80.2-65.5,124-44c52.8,26,58.4,114.5,30,141.8C787.1,393,757,389,755.4,400.7
				S783.9,419,786,438c2.2,19.6-27.4,37.5-29.2,38.5c-35.8,21.1-64-0.7-103.3,9C632.2,490.8,604.4,506.1,577.4,551z"/>
			<g>
				<defs>
					<path id="SVGID_3_" d="M577.4,551c-13.6-66-11.6-117.2-7.7-150.6c3.1-26.2,10-62.8,28.6-67.4c8.9-2.2,14,4.6,23.3,1.8
						c17.6-5.2,17.2-34.5,28.3-55.8c19-36.4,80.2-65.5,124-44c52.8,26,58.4,114.5,30,141.8C787.1,393,757,389,755.4,400.7
						S783.9,419,786,438c2.2,19.6-27.4,37.5-29.2,38.5c-35.8,21.1-64-0.7-103.3,9C632.2,490.8,604.4,506.1,577.4,551z"/>
				</defs>
				<clipPath id="SVGID_4_">
					<use xlink:href="#SVGID_3_"  style="overflow:visible;"/>
				</clipPath>
				<g class="st6">
					<g>
						<path class="st4" d="M570,604.4h1c5.9-158,104.8-295.4,264.8-367.5l-0.4-0.9c-75.8,34.2-140.3,85-186.5,147
							C600.2,448.2,572.9,524.8,570,604.4z"/>
						<path class="st4" d="M521.6,375.2c28.9,32.1,57.1,94.8,62.7,139.8l1-0.1c-5.7-45.1-33.9-108.1-63-140.3L521.6,375.2z"/>
						<path class="st4" d="M571.5,573.4l1,0.3c7.4-22.4,25.8-40.2,54.7-52.9c21.2-9.3,47.4-15.8,78-19.1l-0.1-1
							c-30.7,3.4-57,9.8-78.3,19.2C597.5,532.7,578.9,550.7,571.5,573.4z"/>
						<path class="st4" d="M655.7,374.5l1,0.4c16-41.5,5.2-86.9-6.8-117.7l-1,0.4C660.8,288.2,671.6,333.4,655.7,374.5z"/>
						<path class="st4" d="M727,302l0.5,0.9c44.2-23.5,96.1-15,123-7.9l0.3-1C823.7,286.8,771.6,278.3,727,302z"/>
					</g>
				</g>
			</g>
			<path class="st5" d="M577.4,551c-13.6-66-11.6-117.2-7.7-150.6c3.1-26.2,10-62.8,28.6-67.4c8.9-2.2,14,4.6,23.3,1.8
				c17.6-5.2,17.2-34.5,28.3-55.8c19-36.4,80.2-65.5,124-44c52.8,26,58.4,114.5,30,141.8C787.1,393,757,389,755.4,400.7
				S783.9,419,786,438c2.2,19.6-27.4,37.5-29.2,38.5c-35.8,21.1-64-0.7-103.3,9C632.2,490.8,604.4,506.1,577.4,551z"/>
			<polygon class="st4" points="754.4,759.1 754.5,678.5 59.6,689.8 59.6,772.2 214.1,804.2 			"/>
			<polygon class="st7" points="753.2,494.1 753.2,504.2 798,504.1 788.2,493.9 			"/>
			<polygon class="st4" points="212.6,720.9 59.6,691.8 59.6,500.9 212.6,500.9 			"/>
			<path class="st4" d="M788.1,494.6l-33.4,1l-0.2,186.1l-341,25.5L269.2,718l-56.7,4.2l0.1-220.1l242.1-69.6l142-136L788.1,494.6z
				 M583.7,522.3l0.1-39.5l-97.2,0.3l-0.1,42.2L583.7,522.3L583.7,522.3z"/>
			<g class="st8">
				<polygon class="st4" points="791.5,494.1 602.2,297.1 596.3,291.1 590.5,296.6 449.2,431.3 208.8,499.6 175.4,509 175.4,514 
					212.6,513.7 212.6,510.4 453.9,441.8 596.8,305.7 778.3,494.2 				"/>
			</g>
			<polygon class="st7" points="596.3,280.7 602.2,286.8 793.8,485.9 798.7,491 798.7,504.1 798,504.1 788.2,493.9 596.8,295.3 
				453.9,431.3 214.7,502.7 175.4,513.7 175.4,498.4 208.8,489 449.2,420.8 590.5,286.2 			"/>
			<path class="st4" d="M690.6,482.8l-0.2,179.9l-203.3,13.7l0.1-191.9L690.6,482.8z M679.8,645.7l0.2-151.1l-48.6,0.6l-0.2,153.5
				L679.8,645.7L679.8,645.7z M618,649.5l0.2-154.1l-50.6,0.6l-0.1,156.7L618,649.5z M553.6,653.5l0.1-157.3l-52.7,0.6l-0.1,160
				L553.6,653.5L553.6,653.5z"/>
			<path class="st9" d="M497.7,660.1l0.1-166.4l59.1-0.7l-0.1,163.5L497.7,660.1z M570.7,499.1l-0.1,150.2l44.2-2.7l0.2-148
				L570.7,499.1z M628,652.1l0.2-159.9l54.9-0.6l-0.2,157.2L628,652.1z"/>
			<polygon class="st4" points="596.3,280.7 590.5,286.2 449.2,420.8 275.7,430.8 406.5,312 411.9,307.1 			"/>
			<polygon class="st4" points="449.2,420.8 208.8,489 175.4,498.4 26,498.8 56.1,490.6 275.7,430.8 			"/>
			<polygon class="st7" points="175.4,513.7 26,512 26,498.8 175.4,498.4 			"/>
			<polygon class="st4" points="679,495.8 678.8,644.6 632.2,647.5 632.3,496.4 			"/>
			<polygon class="st4" points="552.7,497.4 552.6,652.4 501.9,655.4 502,498 			"/>
			<polygon class="st4" points="617.1,496.6 617,648.4 568.4,651.4 568.5,497.2 			"/>
			<path class="st10" d="M349.9,375.7l54.8,455.7c0.9,6.6-3.6,12.6-10.2,13.6c-0.1,0-0.2,0-0.3,0l-228.3,25.1
				c-14,0.9-21.6-6.3-22.5-13.5L85.8,372.1c-0.8-7.2,6-13.8,20.1-13.8l230.4,4.9C343,363.3,349.1,368.9,349.9,375.7z"/>
			<path class="st4" d="M360.2,375l55.1,458c0.9,6.6-3.8,12.7-10.4,13.6c0,0-0.1,0-0.1,0l-236.7,23.6c-7.4,0.7-14.1-4.5-15.1-11.9
				l-57.9-487c-0.9-7.3,4.6-13.1,12.1-13l239.3,4C353.2,362.4,359.4,368.1,360.2,375z"/>
			<path class="st1" d="M355.7,400.2l51.1,424.6c0.9,6.2-3.4,11.8-9.6,12.7c-0.1,0-0.2,0-0.3,0l-222.6,21.6
				c-6.9,0.6-13.1-4.3-14-11.1l-53.5-449.8c-0.8-6.8,4.2-12.2,11.2-12.2l224.9,2.4C349.2,388.5,354.9,393.8,355.7,400.2z"/>
			<path class="st4" d="M236.3,374.6c0.3,2.1-1.1,4-3.2,4.3c-0.2,0-0.5,0.1-0.7,0c-2.5-0.1-4.6-2-5-4.5c-0.3-2.1,1.1-4,3.1-4.3
				c0.3,0,0.5-0.1,0.8,0C233.8,370.2,235.9,372.1,236.3,374.6z"/>
			<g class="st3">
				<path class="st4" d="M317.2,685.2C271.6,601,203.5,575.7,183,488.9c-11.1-46.9-3.5-91.9,9.2-129.2l-85-1.4
					c-7.5-0.1-13,5.7-12.1,13l57.9,487c1,7.4,7.7,12.7,15.1,11.9l186.1-18.5C355.5,776.1,337.5,722.8,317.2,685.2z"/>
			</g>
			<path class="st7" d="M462,534.5l-299.5,5.8c-7.6,0.2-14.5-5.4-15.4-12.4l-13.3-108.3c-0.9-7,4.7-12.6,12.3-12.5l300.6,3.3
				c6.7,0.2,12.4,5.2,13.4,11.9l12.3,100.3c0.8,5.7-3.2,11.1-8.9,11.9C463.1,534.5,462.5,534.5,462,534.5z"/>
			<path class="st7" d="M496.1,812.3l-297,26.1c-7.5,0.7-14.4-4.5-15.2-11.5l-13.3-108.3c-0.9-7,4.6-13,12.2-13.5l298.1-17
				c6.6-0.3,12.4,4.5,13.3,11.1l12.3,100.3c0.8,6.2-3.6,11.9-9.8,12.7C496.5,812.2,496.3,812.2,496.1,812.3z"/>
			<path class="st11" d="M479,673.4l-298.2,16c-7.6,0.4-14.4-5-15.3-12l-13.2-108.3c-0.9-7,4.6-12.8,12.2-13l299.3-6.9
				c6.7,0,12.4,4.9,13.4,11.5L489.5,661c0.8,6-3.3,11.5-9.3,12.3C479.8,673.4,479.4,673.4,479,673.4z"/>
			<path class="st7" d="M479,673.4l-298.2,16c-7.6,0.4-14.4-5-15.3-12l-13.2-108.3c-0.9-7,4.6-12.8,12.2-13l299.3-6.9
				c6.7,0,12.4,4.9,13.4,11.5L489.5,661c0.8,6-3.3,11.5-9.3,12.3C479.8,673.4,479.4,673.4,479,673.4z"/>
			<path class="st12" d="M347.8,481.8c2.8,22.4-8.6,27.6-23.5,27.6s-27.6-5.2-30.5-27.6s20.2-53.5,20.2-53.5
				S344.9,459.4,347.8,481.8z"/>
			<path class="st11" d="M324,498.4c-5.7-2.6-12-8.9-12.8-15.5c-0.6-5.1,2.5-6.2,2.6-12.1c0.1-7.6-5.1-11.7-7.2-17.3
				c-2-5.3-1.6-13.2,7.8-24.9l-0.4-0.4c0,0-23.1,31.1-20.2,53.5s15.6,27.6,30.5,27.6c11.6,0,21.1-3.2,23.4-15.2
				C340.4,500.1,331.2,501.7,324,498.4z"/>
			<g>
				<polygon class="st13" points="229.6,668.4 203.7,669.9 192,576 218.1,575.3 				"/>
				<polygon class="st12" points="229.6,668.4 203.7,669.9 198.1,625.3 224.1,624.1 				"/>
				<polygon class="st13" points="265,666.2 239.7,667.8 228.1,575 253.5,574.3 				"/>
				<polygon class="st12" points="265,666.2 239.7,667.8 236.9,645.7 262.3,644.4 				"/>
				<polygon class="st13" points="299.5,664.2 274.8,665.7 263.3,574 288.1,573.3 				"/>
				<polygon class="st12" points="299.5,664.2 274.8,665.7 273.4,654.2 298.1,652.8 				"/>
				<polygon class="st13" points="333.2,662.2 309.1,663.6 297.7,573 322,572.3 				"/>
				<polygon class="st12" points="333.2,662.2 309.1,663.6 300.2,592.6 324.4,591.8 				"/>
				<polygon class="st13" points="366.2,660.2 342.6,661.6 331.3,572.1 355,571.4 				"/>
				<polygon class="st12" points="366.2,660.2 342.6,661.6 334.8,599.4 358.4,598.5 				"/>
				<polygon class="st13" points="398.4,658.3 375.3,659.7 364.2,571.1 387.3,570.5 				"/>
				<polygon class="st12" points="398.4,658.3 375.3,659.7 365.8,584 388.9,583.2 				"/>
				<polygon class="st13" points="429.9,656.4 407.3,657.7 396.3,570.2 418.9,569.6 				"/>
				<polygon class="st12" points="429.9,656.4 407.3,657.7 400.5,604 423.1,603 				"/>
				<polygon class="st13" points="460.7,654.6 438.6,655.9 427.7,569.3 449.8,568.7 				"/>
				<polygon class="st12" points="460.7,654.6 438.6,655.9 434.8,625.8 456.9,624.7 				"/>
			</g>
			<g>
				<path class="st12" d="M232.4,757.3c3-5.8,8.5-9.8,14.9-10.9l-0.6-26c-18.6,1.7-34.5,13.4-41.5,29.4L232.4,757.3z"/>
				<path class="st13" d="M252.7,746.1c8.7,0.5,16,7,17.4,15.6l27.1-0.9c-1.8-22.9-21.4-40.3-45.3-40.6L252.7,746.1z"/>
				<path class="st13" d="M270.1,766.8c-1.2,9-8.9,16.5-18.8,17.3c-2.8,0.2-5.6-0.1-8.3-1L228.8,808c7.5,3.1,15.7,4.4,23.8,3.5
					c25.1-2.4,44.1-22.6,44.8-45.7L270.1,766.8z"/>
				<path class="st7" d="M224,805.6l14.4-24.8c-4.8-3.2-7.8-8.6-8-14.3c0-1.4,0.1-2.8,0.4-4.2l-27.3-7.5c-1.4,4.5-2,9.1-1.9,13.8
					C201.8,784.1,210.4,798.2,224,805.6z"/>
				<path class="st12" d="M332.9,750.3c2.4-5.4,7.3-9.3,13.1-10.3l-1.7-24.7c-16.5,1.5-30.7,12.3-36.4,27.8L332.9,750.3z"/>
				<path class="st4" d="M350.9,739.7c8.2,0.7,15,6.8,16.5,14.9l24.7-0.8c-2.8-21.8-21.1-38.3-43-38.7L350.9,739.7z"/>
				<path class="st13" d="M367.7,759.4c-0.9,9.9-9.6,17.2-19.5,16.4c-1.5-0.1-3-0.4-4.4-0.9l-11.9,23.5c6.8,3,14.3,4.2,21.8,3.5
					c22.2-2.1,39.1-20.9,38.8-43.2L367.7,759.4z"/>
				<path class="st7" d="M327.4,796.1l12-23.5c-4.5-3.1-7.5-8.1-7.9-13.6c-0.1-1.3-0.1-2.7,0.1-4l-25.1-7.2c-1,4.3-1.4,8.7-1.1,13.1
					C306.4,775.6,314.7,788.8,327.4,796.1z"/>
				<path class="st12" d="M424.3,743.9c1.9-5.1,6.2-8.8,11.5-9.8l-2.6-23.5c-15.1,1.4-27.8,11.9-32.1,26.4L424.3,743.9z"/>
				<path class="st4" d="M440.2,733.9c7.8,0.9,14.1,6.6,15.8,14.2l22.6-0.7c-3.3-20.8-21.1-36.6-41-37L440.2,733.9z"/>
				<path class="st13" d="M456.4,752.7c-0.2,8.1-6.1,14.8-14.2,15.5c-2.4,0.2-4.8-0.2-7-1l-9.8,22.3c6.3,2.8,13.2,4,20,3.4
					c20.7-2,34.9-20.1,33.7-41L456.4,752.7z"/>
				<path class="st7" d="M421.2,787.4l9.9-22.3c-4.3-3-7.2-7.8-7.8-13c-0.2-1.3-0.2-2.5-0.1-3.8l-23.3-6.9
					c-0.8,4.1-0.9,8.3-0.4,12.5C401.1,767.8,409.1,780.2,421.2,787.4z"/>
			</g>
			<path class="st1" d="M457.3,185.4c-3.3-0.2-6.3-1.7-8.4-4.2c-27.3-32.1-64.9-51.6-106.7-54.2c-43.7-2.7-86.6,13.2-120,45.8
				c-5.9,5.7-15.5,5.4-21.5-0.8s-6-16,0-21.7c39.7-37.9,90.3-55.9,141.4-51.9l0,0c48.6,3.8,92,27,123.4,64.5c4.5,5.4,4.5,13.9,0,19
				C463.5,184.2,460.5,185.5,457.3,185.4z"/>
			<path class="st1" d="M423.4,223.1c-3.4-0.1-6.5-1.6-8.7-4.2c-18.8-21.3-44.4-33.7-72.5-34.6c-28.9-1-56.9,10.4-78.4,32.2
				c-5.6,5.6-14.6,5.6-20.2,0.1c-0.1-0.1-0.3-0.3-0.4-0.4c-5.8-5.9-5.8-15.4,0-21.3c27.4-27.3,62.7-41,99-39.3
				c35,1.7,66.6,17.6,89.8,44.2c4.7,5.6,4.7,13.7,0,19.3C429.9,221.7,426.7,223.1,423.4,223.1z"/>
			<path class="st1" d="M388.2,262.1c-3.4,0-6.7-1.5-9-4c-20.2-22-54-22.2-75.4,0.4c-5.1,5.5-13.6,5.8-19.1,0.8
				c-0.2-0.2-0.4-0.4-0.7-0.7c-5.5-5.9-5.5-15,0-20.9c32.5-33.8,83.2-32.6,113.1,0.6c4.9,5.6,4.9,14,0,19.7
				C394.8,260.5,391.6,262.1,388.2,262.1z"/>
			<path class="st1" d="M342.2,327.4c-7.1,0.3-14.1-2.5-19-7.7c-5.2-5.4-8.1-12.7-8-20.2c0-7.6,2.8-15,8-20.7
				c4.9-5.4,11.7-8.6,19-8.7c7.1-0.1,13.9,2.9,18.6,8.1c5,5.4,7.7,12.5,7.6,19.9c0,7.5-2.7,14.7-7.6,20.3
				C356.1,323.8,349.4,327,342.2,327.4z"/>
			<rect x="479.1" y="459.8" class="st4" width="254.3" height="108.9"/>
			<rect x="607" y="553.4" class="st4" width="123.3" height="123.3"/>
			<rect x="489.6" y="563.4" class="st4" width="234.8" height="104.3"/>
			<rect x="506.5" y="652.1" class="st4" width="172.4" height="24.3"/>
			<rect x="492.1" y="663" class="st4" width="26.4" height="26.4"/>
			<rect x="505.3" y="667.8" class="st4" width="36.6" height="15.7"/>
			<rect x="478.5" y="676.2" class="st4" width="19.1" height="6.5"/>
			<rect x="480.1" y="563.4" class="st4" width="28.7" height="13.1"/>
			<rect x="513.4" y="610.9" class="st4" width="28.7" height="13.1"/>
		</g>
	</g>
</g>
<rect x="480.7" y="571.3" class="st4" width="15.2" height="20.1"/>
<rect x="502.3" y="591.4" class="st4" width="15.2" height="20.1"/>
<rect x="480.7" y="589.8" class="st4" width="13.2" height="6.7"/>
<rect x="520.8" y="572" class="st4" width="13.2" height="6.7"/>
<rect x="482.3" y="670.6" class="st4" width="11.5" height="8.1"/>
<rect x="498.6" y="665.2" class="st4" width="11.5" height="8.1"/>
<rect x="484.4" y="668.4" class="st4" width="1.9" height="3.7"/>
<rect x="491.2" y="670.3" class="st4" width="1.9" height="3.7"/>
<rect x="483" y="670.3" class="st4" width="3.3" height="1.9"/>
<rect x="495.2" y="667.3" class="st4" width="3.3" height="1.9"/>
</svg>
