<svg xmlns="http://www.w3.org/2000/svg" viewBox="0 0 533.22 1106.2"><defs><style>.cls-1{fill:#fefefe;}.cls-2{fill:#654e42;}.cls-3{fill:#ffad4b;}.cls-4{fill:#c2ddfe;}.cls-5{fill:#bfc7cd;}.cls-6{fill:#eebc90;}.cls-7{fill:#2649b9;}.cls-8{fill:#fa9012;}.cls-9{fill:#97bdf9;}.cls-10{fill:#5a4037;}.cls-11{fill:#ebbc91;}.cls-12{fill:#ebbc90;}.cls-13{fill:#9ca6ae;}.cls-14{fill:#347bd2;}.cls-15{fill:#d39369;}.cls-16{fill:#d49469;}.cls-17{fill:#fff;}.cls-18{fill:#98bdf9;}.cls-19{fill:#4586d8;}.cls-20{fill:#5f98e1;}.cls-21{fill:#fcfdfd;}.cls-22{fill:#f0eded;}</style></defs><title>Ресурс 2</title><g id="Слой_2" data-name="Слой 2"><g id="Слой_1-2" data-name="Слой 1"><path class="cls-1" d="M157.11.09Q342.83.09,528.55,0c3.65,0,4.66.64,4.66,4.53q-.16,548.42,0,1096.83c0,4.1-.88,4.84-4.89,4.83q-262-.18-523.92,0c-3.44,0-4.41-.51-4.41-4.28Q.18,553,0,4.07C0,.6.76,0,4.13,0q75,.21,150,.09c0,2.49-2.19,2.11-3.59,2.51-8.72,2.52-15.59,7.81-21.7,14.25-3.82,4-3.82,9-3.07,14,.57,3.77,2,7.33,3.18,10.95,1.45,4.65-.35,9.22-.31,13.84q.13,15.93,0,31.86c-2.15,10,.37,19.59,2.83,29.17.43,8.47.19,16.94.2,25.41,0,2.14.13,4.37-1.55,6.1-5.9-2.35-9.68,1.56-14,4.48-8.31,5.62-17.1,10.62-26.69,13.48C61.67,174.42,47.84,195,39.61,220.89c-2.87,9-3.48,18.34-3.94,27.62a644.22,644.22,0,0,1-7,65.49c-2,12.9-2.16,25.81-2.28,38.81-.2,21.15,1.77,42.25,1.14,63.4-.39,12.88-3.24,25.41-5.53,38-1.74,9.6-1.24,19.24-1.52,28.89-.14,4.78,4.12,7.09,5.14,11.09a8.15,8.15,0,0,1-1.39,5.22c-7.87,12.06-6.85,24.57-2,37.28,2.19,5.75,3.94,11.7,7.25,17,2.81,4.47,4,4.24,6.82-.22,1.68-2.69,4.44-4.71,6.73-6.85,2.93-2.74,3-5.32,2.12-8.46C43.93,534,42,530.06,40.49,526a20.24,20.24,0,0,1-1.27-3.78c-.43-2.49,0-4.69,2.46-6s4.26-.27,5.81,1.45a88.82,88.82,0,0,1,7,8.48c1,1.39,2,3.85,4.14,2.35,1.82-1.3.39-3.36-.48-4.94s-2-3.09-3-4.62c-5.17-7.71-3.21-15.46-.15-23.23,7.09-6.19,6.62-14.86,7.56-23a32.47,32.47,0,0,0,.06-5.49c-1.21-22.05,2.22-43.77,4.4-65.61,1.2-12.11,2.46-24.13,5.72-35.87.68-2.42.86-5.48,4.45-5.77,1.15,1.31,1.12,2.86.9,4.44-1.12,4.93-.5,9.94-.55,14.9-.1,10,0,19.94,0,29.91a18.67,18.67,0,0,0,.73,5.9c.94,12,.19,24.06.44,36.1.07,2.94-.29,6,1.18,8.72a16.53,16.53,0,0,1,.77,6.4c-.36,15.63-.82,31.33-.48,46.88.45,21.6,0,43.22,1.11,64.83,1.48,29.21,7.9,57.66,11.71,86.51,3.6,27.21,7.23,54.4,9.77,81.74,1,10.59,3.05,21.08,2.83,31.78q1.44,44.08,5.82,88c.53,5.43.65,10.92,1.19,16.36,3.72,26.1,6.16,52.39,10.86,78.37.89,4.9,2,9.75,2.79,14.67a19.11,19.11,0,0,0,4.64,10.27,6.45,6.45,0,0,1,.5,1.71c.49,8.61,2.33,17.18.65,25.84-1.78,2.27-3.12,4.71-2.58,7.74,1.56,8.75-2.26,15.4-8.21,21.27a71.22,71.22,0,0,0-6,6.64c-.65.68-1.43,1.23-2.07,1.92-1.62,1.78-3.21,3.59-4.69,5.49a8.89,8.89,0,0,1-1,.84c-2.38,1.86-3.1,5.31-6.16,6.53a2.15,2.15,0,0,0-1.93,2.58c-3,6.1-8.08,10.54-12.07,15.84a17.37,17.37,0,0,0-3.71,8.06c-1.17,8.06,3.13,13.19,11.26,13.61,13.67.7,25.61-4.63,36.45-11.85a171.84,171.84,0,0,0,29.05-24.34c4.94-5.18,7.2-11,6.63-18.07-.8-10-3.84-19.64-3.31-29.74.09-1.71-1.09-3.12-1.6-4.7-1.37-9.29,0-18.51.74-27.74a9.29,9.29,0,0,1,.35-1.82c2-5.76,2.19-11.81,2.27-17.75.19-13.37,2-26.51,4.08-39.68A308.64,308.64,0,0,0,172.91,859c-1.12-16.85-4.55-33.3-6.57-50-1.78-14.7-2.78-29.47-3.92-44.23-1.37-17.78-1.49-35.62-1.49-53.36q0-32.1,2.22-64.3c1-14.74,1.86-29.54,2.55-44.32.74-15.61,1.94-31.2,3.24-46.78.21-2.41.26-5,2.3-6.94,2.57.11,2.62,2.36,2.86,3.93,2.45,15.88,7,31.26,10.5,46.9a516.65,516.65,0,0,1,13.11,72.4c2.9,24.61,7.33,49,9.61,73.71,2,21.35,3.27,42.67.68,64.2-2.1,17.38.59,34.86,2.88,52.19,3.32,25.06,7.54,50,9.31,75.26.76,10.87,2.38,21.83.62,32.83-.94,5.87-.79,11.69,4.95,15.57,1.64,7.84.84,15.73.59,23.6a25,25,0,0,0-.94,7.89,44.74,44.74,0,0,1-2.58,17.68c-2.55,7.38-1.68,14.18,3,20.33,13.87,18.24,30.43,33,52.77,40.12a32.22,32.22,0,0,0,14.8,1.2c9.43-1.45,13.64-8.39,10.58-17.48a24.25,24.25,0,0,0-6-9.09c-4-4-8.11-7.9-11.91-12.1a15.55,15.55,0,0,0-2.29-2.51,23.23,23.23,0,0,1-4.25-4.92c-.44-.5-.88-1-1.34-1.47-1.59-1.67-3.33-3.2-4.79-5a9.71,9.71,0,0,1-.84-1.21c-3.66-3.81-6.91-8-10.38-11.94-3.25-3.7-4.94-7.67-4.38-12.59a14.85,14.85,0,0,0-1.75-8.6c-.86-7.54-.51-15.09-.24-22.64a6.44,6.44,0,0,1,.78-2.68c3.76-3.23,5.09-7.38,5.47-12.29,1.42-18.22,2.78-36.45,3.51-54.72.87-21.59,2.45-43.15,2.05-64.79-.18-9.3-.08-18.6-.11-27.9-.05-17.92-.88-35.82-1.87-53.71.21-21-1.06-41.93.79-62.86,0-.5.07-1,.06-1.5-.61-21.3,1.5-42.56,1.09-63.86-.18-9.3.21-18.61.68-27.92.79-15.77-.78-31.56-1.36-47.34-.1-2.66-.45-5.31-.36-8,.66-19.48-.89-38.91-1.22-58.37a155.42,155.42,0,0,0-6.72-43.75,22.9,22.9,0,0,0,1.08-8.32c-.33-20.44,1.29-40.79,2.84-61.15.13-1.8.14-3.68,1.5-5.15a3.63,3.63,0,0,1,3.8,0c7.1,3.33,14.43,6.08,21.69,9,1.22.5,3.09.83,2.56,3-1.75,1.71-4,1.42-6.13,1.48-3.83.09-7.66-.1-11.48.1-1.36.07-3.52-.34-3.47,1.77,0,1.88,2.09,1.8,3.53,2a39.55,39.55,0,0,0,5,.13H326a35.68,35.68,0,0,1,8.93.68,371.77,371.77,0,0,1,40.39,9,21.69,21.69,0,0,0,9.83.63c3.54,3.71,8.2,5.19,13,5.57a177.24,177.24,0,0,0,23.95,0c8.36-.47,14.73-4.67,20.51-10.22,1.9-1.84,3.55-4,6.12-5.05,11.3-1.2,22.63-.28,33.93-.54,3.34-.08,6.42-.31,7.49-4.24,7-12.45,10.28-26.32,15.21-39.56,8-21.54,15-43.42,23.1-64.94.47-1.25.93-2.5,1.29-3.78,2.12-7.4-1.16-12-8.93-12.49-3.16-.2-6.33-.07-9.49-.07H378.42c-11,0-12.52,1.33-16.07,11.71-6.58,19.22-13.25,38.41-20.22,57.49-.84,2.31-1.45,4.82-3.55,6.47-1.95.83-3.59-.18-5.18-1-7.1-3.67-13.95-7.78-20.87-11.77a7.08,7.08,0,0,1-3.76-6.54c-.15-13.24-3.39-26-5.69-39-1.87-10.49-3.47-20.95-3.41-31.68.09-17.53-2.8-34.75-6.11-51.92-1.78-9.19-6.76-16-13.82-21.82-15.31-12.6-32.52-21.89-50.62-29.73a312.69,312.69,0,0,0-31.19-12c-2.05-.64-4.16-1.26-5.78-2.84-1.48-1.8-1.55-4-1.55-6.13,0-7-.2-13.9.16-20.85,1.6-6.94,4.94-13.31,6.66-20.24a94.49,94.49,0,0,0,2.77-13.08c-.05-14.3,4.63-28.23,3.27-42.62,2.84-.66,3.37-2.56,3.63-5.32.93-9.93-1.87-14.5-11.35-17.51A23.56,23.56,0,0,0,188.91,16c-6.38-.06-11.34-3-16-6.88-4-3.29-8.31-6-13.58-6.92C158.23,2,156.86,1.8,157.11.09Z"/><path class="cls-2" d="M127.35,41.12c-1.52-4.87-3.35-9.6-3.38-14.88a15.25,15.25,0,0,1,4.61-11.1C135.66,7.72,144,2.38,154.11.09h3a38.22,38.22,0,0,1,19.77,10.44c4.33,4.13,9.7,3.6,14.81,4.43a31.3,31.3,0,0,1,7.12,1.95c7.95,3.38,10.72,8.25,9.53,16.82-.36,2.61,0,5.33-1.47,8.09l-2.71-2.93c-3.7-1.28-6.46-4.06-9.55-6.26-8.7-6.16-18.58-7.69-28.85-8.21-7.86-.39-15.61.93-23.42,1.14-3.09.09-5.25,1.84-7,4.24a40,40,0,0,0-4.4,8.37C130.31,39.65,130.1,42.06,127.35,41.12Z"/><path class="cls-3" d="M193.06,143c19.55,5.48,38.05,13.58,56.07,22.8,11.28,5.76,21.63,13,31.72,20.6,9.42,7.14,13.42,16.94,15.27,28.08A374.68,374.68,0,0,1,301.4,270c.22,15.1,4.69,29.74,7.11,44.61.9,5.57,1.89,11.16,1.56,16.82-.17,2.81.67,4.56,3.23,6,8.33,4.49,16.53,9.21,24.78,13.84,1.41,2,.24,3.87-.36,5.69-2.09,6.33-4.21,12.67-6.74,18.81a75.5,75.5,0,0,0-4.91,19.62,7.19,7.19,0,0,1-4.68,1.29c-7.9.11-15.81.13-23.72,0-1.64,0-3.32-.17-4.54-1.52-.47-2.08,1.71-1.53,2.58-2.64-4.47-4.55-10.17-6.42-16.21-7.72-7.71-1.65-8.48-2.57-6.42-10.11,2.3-8.4,1.51-16.13-3.37-23.37a6.34,6.34,0,0,1-.39-7c4.17-7.93,4.72-15.85-.21-23.72a8.64,8.64,0,0,1-.79-6.3c1.51-8.64,2.57-17.36,3.64-22-5.32,26-7.49,56.28-6.15,86.81.06,1.32.37,2.66-.66,3.79-2.11,2.89-1.44,6.43-1.58,9.52-1,20.39-3.39,40.74-2,61.18.16,2.34-.8,2.9-2.39,3.55-2.07.85-4.25.66-6.41.66-12.83,0-25.65.19-38.47-.06-11.34-.21-22.59,1.67-33.92,1.07-2.32-.13-4.67.15-6.94-.56a2.09,2.09,0,0,0-2.92-.15c-4.7,1.06-9.46.43-14.2.56-.61,0-1.22,0-1.83.11-5.73,1.53-11.59.94-17.4,1-8.66.08-17.32.05-26,0a11.73,11.73,0,0,1-5.37-.85c-1.71-2.45.63-2.69,1.92-3.16,3-1.07,6-1.85,8.86-3.35,7.17-3.8,7.7-7.9,1.67-13.47-3.09-2.85-6.79-4.79-10.44-6.79-4.67-2.56-9.33-5.14-13.82-8-5.47-3.49-7.77-8.4-7.25-14.82.44-5.51,1.77-10.85,2.89-16.22,2.17-10.36,3-20.74,1-31.23a27.58,27.58,0,0,0-4.34-11.07,19.07,19.07,0,0,1-3.36-7.74c-2.1-11.8-4-23.64-2.92-35.7.6-6.93-1-13.78-.42-20.71-.36-.65-1.14.17-.53-.11.25-.11.41,0,.42.27a426.09,426.09,0,0,1-.58,48.74c-.45,6.17-.11,12.32-.33,18.47-.08,2.26.5,4.74-1.61,6.52-3.58,3.68-3.5,8.72-4.62,13.23-3.53,14.22-2.56,29.08-5.38,43.33-4.31,21.74-1.23,43.76-3.79,65.5-.71,6-2.47,11.35-8.06,14.62a82.12,82.12,0,0,1-29.91-2c-7.67-6.7-6.11-15.66-6.18-24.36-.1-12.91,3.48-25.25,5.34-37.85C26.67,417,26,401.05,25.55,385.1c-.09-3-.38-6-.4-9-.08-13.11-.07-26.23-.14-39.35s2.95-25.67,4.49-38.5c1.91-16,4.14-31.93,4.56-48,.59-22.29,6.1-42.88,19.53-61,7.94-10.72,17.91-18.5,30.73-22.69,13-4.24,25.3-10.15,36-18.79,3.7-3,6.06-3.76,8.74.54,2.14.3,3.4,1.94,4.91,3.21,14.44,12.12,40.93,9.9,53.33-4.44C188.84,145.26,190,142.76,193.06,143Z"/><path class="cls-4" d="M172.61,457.12c26.87-.43,53.74-.9,80.6-1.25,2,0,4.36-1.06,6,1.15,5,10.22,6.08,21.33,6.83,32.37,1.7,25.05,1.75,50.16,2.28,75.25.35,16.42,2.38,32.88,1.57,49.26-.92,18.82.23,37.64-1,56.38-.83,12.66.1,25.31-.89,37.89-1.66,21-.36,41.94-.86,62.89-1.37,2.65-4.11,3.14-6.53,4.14-5.85,2-11.72,1.5-17.58.11-3.35-.1-2.56,1.88-1.65,3.59,1.41,2.64,3.1,5.12,4.63,7.69a66.33,66.33,0,0,1,9.58,30.59c.73,11.71,3.57,23,11.37,32.42A37.16,37.16,0,0,1,269,853c.89,17.15-.45,34.27-1.14,51.38-.48,12.08-.81,24.19-1.78,36.27q-1.53,19.07-3,38.13c-.3,4-4.06,4.44-6.25,6.5-2.25,3.71-6.29,4.26-9.85,4.76-6.5.92-13.11,1-19.37-1.75a7.92,7.92,0,0,1-2.48-2.13c-9.71-3.16-6.41-11.37-5.68-17.38,1.32-10.73-.31-21.25-.89-31.76a265.55,265.55,0,0,0-3.38-30.54c-1.85-10.74-2.9-21.62-4.29-32.44-1.28-10-2.53-20-3.82-30a189.89,189.89,0,0,1-.94-29.87c.36-11.76,2.61-23.42,1.93-35.25-.85-14.71-2.25-29.36-3.69-44-1.87-19.1-5.91-37.9-7.35-57-.14-2-.56-3.91-.86-5.87.79-5.46-.09-10.9-.65-16.29-1.54-14.69-2.52-29.44-4.81-44-4.32-27.59-8.51-55.2-14.21-82.55a34.94,34.94,0,0,0-6.85-14.78c-1-1.83-.91-3.84-1-5.82a369,369,0,0,1,2-47.59C170.91,459.41,170.93,457.86,172.61,457.12Z"/><path class="cls-4" d="M105.11,458.08c16.61.17,33.22.12,49.82-.58,2.85,3.75,1.53,8,1.2,12a188.9,188.9,0,0,0,.49,39.28c.56,4.35,3.95,5.74,7.59,5.69,4,0,5,1.74,5.46,5.31,1.06,8.39,1,16.9,3,25.18.35,1.49.61,3-.7,4.16-2.71,6.93-2.37,14.37-2.6,21.48-.44,13.78-1.84,27.49-2.57,41.23-.9,17.21-1.55,34.45-2.92,51.62-.66,8.33-.81,16.61-.68,24.89.11,7-1.55,13.92-1,20.88,1.12,15.28.18,30.63,1.14,45.87,1.65,26.23,3.67,52.42,8.49,78.38,3.64,19.6,4.26,39.64,3.15,59.56a302.81,302.81,0,0,1-5.39,43.78,130.73,130.73,0,0,0-2.29,24.68c-.09,7-1.42,13.89-1.13,20.87.08,1.82-1.2,2.61-2.1,3.74-4.07,3.76-9.2,4.38-14.31,4.26-6.73-.16-13.55-.4-19.55-4.18-5.4-2.43-5-8-5.79-12.29-3.39-19.12-6.48-38.31-9.12-57.55-1.53-11.09-2.25-22.28-4.1-33.34-.33-9.92,5.23-17.16,11-24.4a96.78,96.78,0,0,0,10.63-15.69c2.35-4.6,2.81-9.28.8-14-4.55-10.63-5-21.24-.7-32.07,1.74-4.35,2.24-9,2.78-13.68.61-5.31.32-5.47-4.81-4-6.73,2.17-13.56,1.84-20.42.92-2.09-.61-4.43-.42-6.22-2-.83-16.19-3.31-32.21-4.79-48.33-1.19-13-2.92-26-4.4-38.92-1.65-14.43-4.27-28.75-6.08-43.16-2.32-18.35-6.57-36.36-8.07-54.88-1.42-17.42-1.86-34.8-1.72-52.22.07-9.32-1.47-18.65-.79-27.85,1.12-15.14.3-30.24.75-45.36.07-2.49,0-5-.06-7.49A2,2,0,0,1,81,458.05c7.18-.54,14.3-2.11,21.56-1.25A3.76,3.76,0,0,1,105.11,458.08Z"/><path class="cls-5" d="M326.31,394.11c-1.64-3-1.17-6-.06-9.13,4-11.24,7.9-22.52,11.83-33.79,8.52-22.83,16.85-45.72,24.13-69,1.62-5.14,5.91-8.1,12.31-8.11q37.46,0,74.91,0,35.22,0,70.42,0c10.09,0,14.34,5.78,11,15.15q-17.42,49.47-35,98.9c-1,2.87-1.85,6.11-4.77,8-3.9,1.33-7.91.56-11.85.49-9.11-.15-18.24.85-27.31-.59-3.46-2-1.4-5.84-2.81-8.81-1.57.52-1.44,1.95-1.66,3.08-.48,2.45-.75,4.94-1.41,7.35-.53,1.9-1.65,3.48-3.88,3-2.46-.5-2.21-2.62-2-4.43a45.19,45.19,0,0,0,.45-8c-.06-1.43.32-3-1.28-4.44-1.43,2.27-1.24,4.83-1.73,7.16s-.78,4.93-1.45,7.33c-.52,1.87-1.42,3.62-3.66,3.4-2.7-.27-2.11-2.5-2.05-4.27.12-3.45.58-6.92-.53-10.87-2.39,1.67-2.18,3.94-2.58,5.89-.57,2.76-.65,5.65-2.14,8.15a3.22,3.22,0,0,1-3.26,1.88c-1.62-.27-1.84-1.71-2.07-3-.37-2.12.55-4.27-.15-6.69-2.69.07-3.56,3.06-5.85,3.44a22.49,22.49,0,0,1-6,.5c-24.58,0-49.15,0-73.72-.05C331.47,396.64,328.15,397.5,326.31,394.11Z"/><path class="cls-6" d="M127.35,41.12c3.14-1.9,3.06-5.61,4.5-8.42,3.05-5.92,7.08-8.73,14.08-9,10.49-.33,21-1.06,31.38.41,10.7,1.52,19.45,7,26.85,14.73,1.43,5.89,1.15,11.76.35,17.73-1,7.19-2.85,14.29-2.38,21.65.11,1.6.41,3.35-.85,4.76-1.58,2.92-1.69,6.29-2.82,9.36-3.18,8.66-8.52,10.79-16.18,5.87-3.69-2.37-6.95-2.68-10.67-.48a16.62,16.62,0,0,1-17.13.53c-5-2.59-10.42-1.73-15.71-1.9-6.47-.21-9.32-2.25-11.55-8.24.18-13.9-1.07-27.83.78-41.7A9.7,9.7,0,0,0,127.35,41.12Z"/><path class="cls-7" d="M163.21,1016c1.78.1,2.17,1.27,2,2.75-.92,10.56,2.22,20.71,3.1,31.09.49,5.74-.33,11.26-4.16,15.32-16.65,17.62-34.5,33.62-59.07,39.42a34.16,34.16,0,0,1-13.87.34c-9.28-1.65-12.32-14.08-5.7-22.62,4.47-5.76,9-11.44,13.55-17.16-.39-1.17.36-1.48,1.25-1.5,6.13-.17,12.2,0,17,3.3-4.4-3.84-10.71-2.6-16.34-3.93,3-1.43,2.85-5.65,6.07-6.91,4.12,1.14,8.53-.17,12.58,1.54,1.7.72,3.63.93,4.31,1.61a25.94,25.94,0,0,0-11-2.74c-1.71,0-3.6.8-5.14-.67l4.45-5.84a27.61,27.61,0,0,1,18.67,1.85c-5.23-3-11.28-2.42-17.12-3,3.38-4,6.5-8.36,10.23-12.06a12.9,12.9,0,0,0,4.06-11.08c-.25-3,.08-6-.08-8.92-.12-2.29,1-2.87,3-2.78a6.4,6.4,0,0,1,4.36-.11,68,68,0,0,0,23.58,1.23A5.43,5.43,0,0,1,163.21,1016Z"/><path class="cls-7" d="M257.23,1011c1.85.11,2.16,1.46,1.87,2.8-2.45,11.47,5.26,18.23,11.73,25.58,1.08,1.23,2.09,2.53,3.14,3.79-6.57.86-12.73,2.72-17.23,6.72,4.92-3.33,10.43-7,17.68-5.83l4.56,5.12c-4.54,1.76-9.62,2.13-13.56,5.45a33.88,33.88,0,0,0-4.28,4.12c5.48-6,11.5-8.86,18.95-8.61,1.37,1.64,2.75,3.27,4.12,4.9-5.25,2.29-11.16,3.16-15.49,7.4-.63.23.39.66-.09.2-.07-.07,0-.2.28-.38,3.57-2.43,7.19-4.77,11.52-5.66,1.93-.4,3.91-1.09,5.67.51,6,5.94,13.06,10.86,17.43,18.27,3.21,5.42,4.33,11.35.67,16.93-3.8,5.78-10.06,6.79-16.32,6.26-18.26-1.57-32.6-11.3-45.71-23.08-7-6.31-13.79-13-18.74-21.2-3.46-5.76-4.45-11.64-2.25-18.06a52.44,52.44,0,0,0,3-19.53c-.09-1.87-.86-4,.85-5.66a5.68,5.68,0,0,1,4.7-1c8.5,1.4,17,2.4,25.59.53A3.38,3.38,0,0,1,257.23,1011Z"/><path class="cls-8" d="M105.11,458.08c-7.2.27-14.4.49-21.6.83-1.51.07-3.33-.76-4.48,1-2.42-.08-1.82-1.95-1.83-3.29-.11-13.76-.16-27.53-.23-41.29q-.87-25.77,0-51.53c0-1.14,0-2.28-.07-3.42l2.37-75.11c.21,6.66,1.93,13.18,1.78,19.82a182.14,182.14,0,0,0,3.09,37.08A21.24,21.24,0,0,0,88,350.7c3.93,5.59,4.55,12.32,5.08,18.95,1,12.09-2.11,23.7-4.48,35.37-1.93,9.45-.63,13.44,7.4,18.53,5.88,3.73,12,7.17,18.1,10.45a30,30,0,0,1,7.32,5.93c4.15,4.23,3.36,9.19-1.66,12.35C115.22,455.15,109.94,456,105.11,458.08Z"/><path class="cls-9" d="M104.19,778.15c2,.19,4.1-.76,5.9.79a29.67,29.67,0,0,0,21-.8l5.69-2.48A44.29,44.29,0,0,1,134,797.53c-4.17,10.91-3.46,21.27,1.14,31.78,3.11,7.1-.15,13.28-3.92,19A144.59,144.59,0,0,1,122,860.66,50.44,50.44,0,0,0,111.17,883c-1.3-14.47-2.7-28.93-3.85-43.41-.9-11.37-1.67-22.76-2.15-34.16C104.79,796.35,103.4,787.29,104.19,778.15Z"/><path class="cls-10" d="M127.22,88.17c3.33,5.62,8.08,7.79,14.65,6.82a21.43,21.43,0,0,1,14.4,2.77,11.86,11.86,0,0,0,13.23-.42c5-3.33,9.35-3.72,14.41.37s8.83,2.54,12.25-3c2.29-3.7,1.65-8.59,5.12-11.7-1.09,11.23-4.73,21.71-9.44,31.87-7,20.73-36.07,28.08-52.81,13.34-3.88-3.43-7.37-7.18-8.83-12.36C126.89,106.89,125.25,97.72,127.22,88.17Z"/><path class="cls-6" d="M130.2,115.88c1.8,2.35,3.49,4.79,5.42,7,14.53,16.89,37.76,16,51.86-2,1.52-1.94,2.91-4,4.36-6q.09,11.43.19,22.88c0,1.81-.24,3.67,1,5.23-5.31,5.16-10,10.91-17.31,13.75-17.05,6.64-33.48,6.56-46.72-8.46,1.79-2.56.83-5.45.9-8.18C130.13,132,130.12,124,130.2,115.88Z"/><path class="cls-11" d="M25.15,495.09c8.72.32,17.44.66,26.16,1a6.86,6.86,0,0,1,3.75,1c-1.54,8.25-4,16.58,3,23.82a13.24,13.24,0,0,1,2.72,4.7c.66,1.88,1,4.16-1.34,5.22-1.94.87-3.46-.22-4.68-1.84-2.49-3.32-5-6.58-7.6-9.85-1.4-1.8-3-3.42-5.41-1.8-2.19,1.46-2,3.69-1.11,5.82,1.78,4.47,4,8.8,5.36,13.39,1.13,3.86,4.26,8.83-2.85,10.73,1,5.13-6.94,4.21-6.39,9.68.26,2.61-2.91,2.51-5.07,1.38-1.86-1-2.76-2.82-3.68-4.56a108.42,108.42,0,0,1-11.4-35.25c-.82-5.82,2.68-11.15,4.77-16.52A59.11,59.11,0,0,1,25.15,495.09Z"/><path class="cls-12" d="M415,395.12a29.9,29.9,0,0,1,1.77-3c.9-1.23,2-2.45,3.74-1.72s1.8,2.28,1.42,3.83c-.61,2.5-2,6.66.24,7,3.85.62,2.63-4.07,3.46-6.47a45.38,45.38,0,0,0,1.47-7.77c.27-1.66.94-3,2.84-2.72s2.19,1.78,2.18,3.37c0,3.32-.07,6.65-.05,10,0,1.1-1.79,2.79.54,3.17,1.88.31,2.28-1.39,2.51-3,.61-4.25,1.39-8.47,1.95-12.73.25-1.87.15-4,2.77-3.79,2.2.15,2.34,2.07,2.27,3.78-.18,4,.6,8-.73,11.88-.36,1-.6,2.51,1,2.84s2.41-.78,2.64-2.26c.53-3.42.89-6.89,1.59-10.28.26-1.28.37-3.23,2.57-3s1.95,1.91,2,3.37c.05,2.49,0,5,0,7.48.83,3.07-.08,5.41-2.93,6.93-3.85,5.35-9,9.22-14.43,12.77-3.36,2.19-7.17,2.57-10.9,2.79-11.2.66-22.5,2.19-33.42-1.91-2-.76-4.8-1.1-4.37-4.42-1.42-3.6.39-6.54,2-9.52,3.92-1.88,8.13-1.14,12.16-.95C405.38,401.06,411,400.59,415,395.12Z"/><path class="cls-9" d="M261.05,774l6.08-2.91c1.81,27.29,2.49,54.6,1.89,82-9.15-7.45-12.23-18-13.81-28.89-1.68-11.62-2.1-23.47-8.52-33.87-2.44-4-5.07-7.79-7.29-11.86-1.91-3.49-1.32-4.16,2.81-4.07a35.86,35.86,0,0,0,14.56,1.23C258.25,775.36,260.15,775.87,261.05,774Z"/><path class="cls-13" d="M415,395.12c-1.48,5.37-4.73,7.61-10.52,7.09s-11.49-.06-17.24,0c-2,1.59-4.36,1.52-6.68,1.49-14-.21-28,.75-41.88-1.06a8.72,8.72,0,0,0-3.48.19c-11.76-1.6-23.57-.35-35.36-.66-8.65-.23-17.3-.07-26,0-2.87,0-5.68-.27-5.65-3.92,0-3.82,3.24-2.95,5.6-3.12,6.08-.46,12.23,1,18.25-.79a.59.59,0,0,1,.93-.13c1.69,1.6,3.79.88,5.7.9,7.63.07,15.26,0,22.9,0,1.6,0,3.35.46,4.71-.92,1.94,1.36,4.16,1,6.29,1Z"/><path class="cls-12" d="M163.21,1016c-10.88,1.84-21.63,1.69-32.17-2,.72-9-.84-18-.77-27,4,.16,7.7,1.79,11.69,2.24a50,50,0,0,0,22-2.23C163.93,996.73,162.53,1006.34,163.21,1016Z"/><path class="cls-9" d="M170.84,514.3c5.88,5,6.86,12.26,8.1,19.17,4.5,25,9.07,50,12.93,75.09,2.1,13.68,3.53,27.49,4.41,41.36.37,5.78.84,11.55.79,17.35,0,1.59.59,3.36-.87,4.7a486.85,486.85,0,0,0-11.78-66.18c-.47-1.92-.81-3.87-1.2-5.81.24-6.54-2.39-12.53-3.76-18.75A473.33,473.33,0,0,1,169.74,521C169.54,518.75,169.29,516.34,170.84,514.3Z"/><path class="cls-8" d="M293,394.15a2,2,0,0,0-.93.13c-9.23-3.23-18.45-6.48-26.92-11.51-1.76-14.56-1.27-29.11-.3-43.7A299.17,299.17,0,0,1,268.14,308c1.39-8.06,3.06-16.07,4.61-24.11l1.4.25c-1.15,7.54-2.23,15.09-3.45,22.62-.94,5.81-2.12,11.19,1.48,17.05,4.28,7,1.93,14.49-1.79,21.31-.86,1.58-1.64,2.74-.3,4.44,6,7.62,7.13,16,4.31,25.27-2.08,6.82-1.76,6.82,5.44,8.4s14,3.91,18.78,10.26C296.59,394.57,294.74,393.86,293,394.15Z"/><path class="cls-11" d="M257.23,1011c-8.85,3.83-17.85,1.83-26.83.72L225,1011l.15-24.86,2,.84c8,4.61,16.29,3.82,24.71,1.51,1.71-.47,3.19-1.79,5.13-1.45Z"/><path class="cls-14" d="M170.84,514.3c1.34,27.64,6.68,54.67,12.67,81.59.32,1.4,1.22,2.83-.29,4.09-3.88-16.92-8.56-33.66-11.24-50.85-2.17-10.21-3-20.59-3.73-31-.16-2.44-1.08-2.34-3-2.25-6.68.29-9.57-2.48-10.26-9.25-1.3-12.74-1-25.48-.15-38.23.24-3.63.1-7.29.13-10.93l1.55-.09c1.62,2.41,1,5.15,1.13,7.77.41,13-.86,26,.86,38.94a12.78,12.78,0,0,0,1.24,4.81,4,4,0,0,0,4.1,2.24c2.23-.22,2.46-1.91,2.66-3.61a22.72,22.72,0,0,0,.12-3.5c-.4-13.35.75-26.61,2.1-39.87.25-2.49.46-5,2.3-7,.49-.82,1-.63,1.62-.09a395.49,395.49,0,0,0-2.48,54.4C170.15,512.5,170,513.52,170.84,514.3Z"/><path class="cls-3" d="M335.19,402.8c1-.82,2.17-.7,3.32-.7l48.72.08c.28,3.25-1.69,6-2.13,9.05-1.88,2.11-4,2.11-6.64,1.36C364.21,408.6,349.88,404.87,335.19,402.8Z"/><path class="cls-13" d="M448.22,402c1.84-1.94,1.74-4.71,2.93-6.93q17.12,0,34.23,0c2,0,4-.08,5.76,1,.58,4.61-1.57,6.14-6,6.06C472.81,401.94,460.52,402,448.22,402Z"/><path class="cls-15" d="M257,987.06c-9.08,5.53-18.61,5-28.31,2.07-1-.3-2.6-.29-1.53-2.13,10.13,3.12,20.09,3.42,29.75-1.72Z"/><path class="cls-3" d="M77,363.83v51.53A321.21,321.21,0,0,1,77,363.83Z"/><path class="cls-16" d="M164,987.07c-11.25,5.08-22.49,4.07-33.73,0a1.72,1.72,0,0,1-.1-.87c3.39.64,6.8,1.14,10.14,1.94,8.15,1.94,16,.83,23.73-2A2.07,2.07,0,0,1,164,987.07Z"/><path class="cls-17" d="M286.1,1057.09c-8.21-.74-14.32,3.66-20.42,8.2,4.55-6.37,11.09-9.11,18.53-10.27A1.71,1.71,0,0,1,286.1,1057.09Z"/><path class="cls-17" d="M113.86,1048.87a24.11,24.11,0,0,1,20.84,5.31c-6.9-4.58-14.67-4.24-22.39-4.16C112.38,1049,113.22,1049.08,113.86,1048.87Z"/><path class="cls-17" d="M101.05,1063c11.46,0,13.44.56,19.29,5.59-6.87-2.56-13.58-6.17-21.24-3.46-.57-.17-1.5-.19-1.1-1.08C98.58,1062.76,100,1063.21,101.05,1063Z"/><path class="cls-17" d="M274.42,1044c-7.89.35-14.51,3.7-20.51,8.53,5.14-6.37,11.66-9.84,20.06-9.42Z"/><path class="cls-17" d="M280.09,1050.12c-7.08,1.34-14,3.08-19.15,8.68,4.46-6.17,10.6-9.14,18-9.64Z"/><path class="cls-17" d="M107.86,1055.86c4.88.56,10-.58,14.6,2,1.54.85,3.46,1.17,4.23,3.47-5.94-4.19-13.1-3.24-19.57-5.17A2.18,2.18,0,0,1,107.86,1055.86Z"/><path class="cls-4" d="M171,457.21c-1.94,16.67-3.29,33.37-3,50.17.05,2.42,1.12,5.62-3.31,5.78-3.82.14-6.63-1-7.42-5a49.47,49.47,0,0,1-1-8.4c-.36-14.12-.52-28.25.13-42.37Z"/><path class="cls-18" d="M224.21,484.8a20.19,20.19,0,0,1,0-3.48c.55-3,1.17-4.54,5-2.37,7.77,4.42,16,8.09,25.26,8.18,1.4,0,3.28.42,1.65,2.17-3.93,4.21-7.42,9.06-13.42,10.72C232,503,224.05,496.53,224.21,484.8Z"/><path class="cls-19" d="M261.05,774c2.95,1.75-.54,1.78-.68,1.8-6.15.85-12.31,1.56-18.16-1.45C248.5,774.65,254.81,776,261.05,774Z"/><path class="cls-18" d="M123.1,488.22c.15,7.08-.81,13.51-7.94,17.42-5.5,3-10.33.64-15.21-1.25a41.49,41.49,0,0,1-6.87-4c-2-1.28-1.73-2.74.15-3.77,9-4.94,18.08-9.79,27.13-14.66,1.94-1.05,2.77-.34,2.74,1.74C123.08,485.23,123.1,486.72,123.1,488.22Z"/><path class="cls-20" d="M131.1,778.14c-6.86,4.23-13.86,4.36-21,.8A64.18,64.18,0,0,0,131.1,778.14Z"/><path class="cls-1" d="M441.1,344.11c-.08,3.72-4.46,7.92-8.18,7.85-4.73-.08-7.87-3.44-7.83-8.37,0-3.94,4.07-8.3,7.66-8.29C437.09,335.31,441.2,339.65,441.1,344.11Z"/><path class="cls-21" d="M447.11,332.89c-.14,2.24-1.16,3.81-3.2,4a3.24,3.24,0,0,1-3.62-3.29c-.08-2.08,1.47-3.28,3.53-3.46A2.81,2.81,0,0,1,447.11,332.89Z"/><path class="cls-22" d="M170.3,104.46c-6.29,7.24-12.49,7.12-18,0C158.28,106.4,163.92,107.12,170.3,104.46Z"/></g></g></svg>