<svg xmlns="http://www.w3.org/2000/svg" viewBox="0 0 515.53 1105.4"><defs><style>.cls-1{fill:#654e42;}.cls-2{fill:#ffad4b;}.cls-3{fill:#c2ddfe;}.cls-4{fill:#bfc7cd;}.cls-5{fill:#eebc90;}.cls-6{fill:#2649b9;}.cls-7{fill:#fa9012;}.cls-8{fill:#97bdf9;}.cls-9{fill:#5a4037;}.cls-10{fill:#ebbc91;}.cls-11{fill:#ebbc90;}.cls-12{fill:#9ca6ae;}.cls-13{fill:#347bd2;}.cls-14{fill:#d39369;}.cls-15{fill:#d49469;}.cls-16{fill:#fff;}.cls-17{fill:#98bdf9;}.cls-18{fill:#4586d8;}.cls-19{fill:#5f98e1;}.cls-20{fill:#fefefe;}.cls-21{fill:#fcfdfd;}.cls-22{fill:#f0eded;}</style></defs><title>Ресурс 6</title><g id="Слой_2" data-name="Слой 2"><g id="Слой_1-2" data-name="Слой 1"><path class="cls-1" d="M110.89,41c-1.52-4.86-3.35-9.6-3.38-14.88a15.24,15.24,0,0,1,4.61-11.09c7.09-7.43,15.41-12.77,25.53-15h3a38.27,38.27,0,0,1,19.77,10.43c4.33,4.14,9.7,3.61,14.81,4.44a30.8,30.8,0,0,1,7.12,2c8,3.37,10.72,8.24,9.53,16.81-.36,2.61,0,5.34-1.47,8.09L187.7,38.8c-3.7-1.29-6.46-4.07-9.55-6.26-8.7-6.17-18.58-7.69-28.85-8.21-7.86-.4-15.61.92-23.42,1.14-3.09.08-5.25,1.84-7,4.23a39.87,39.87,0,0,0-4.4,8.38C113.85,39.56,113.64,42,110.89,41Z"/><path class="cls-2" d="M176.6,142.92c19.55,5.48,38.05,13.58,56.07,22.79,11.28,5.76,21.63,13,31.72,20.61,9.42,7.14,13.42,16.94,15.27,28.08a374.55,374.55,0,0,1,5.28,55.47c.22,15.1,4.69,29.75,7.11,44.62.9,5.57,1.89,11.15,1.56,16.82-.17,2.81.67,4.56,3.23,5.94,8.33,4.49,16.53,9.21,24.78,13.85,1.42,2,.25,3.87-.36,5.69-2.09,6.32-4.21,12.66-6.74,18.81a75.93,75.93,0,0,0-4.91,19.61,7.2,7.2,0,0,1-4.68,1.3c-7.9.11-15.81.13-23.72,0-1.64,0-3.31-.16-4.54-1.52-.47-2.07,1.71-1.53,2.58-2.64-4.46-4.54-10.17-6.42-16.21-7.71-7.71-1.65-8.48-2.57-6.42-10.12,2.3-8.4,1.51-16.13-3.37-23.36a6.36,6.36,0,0,1-.39-7c4.17-7.92,4.72-15.84-.21-23.71a8.66,8.66,0,0,1-.79-6.31c1.51-8.64,2.57-17.36,3.64-22-5.32,26-7.49,56.29-6.15,86.81.06,1.33.37,2.67-.66,3.79-2.11,2.9-1.44,6.44-1.58,9.53-1,20.38-3.39,40.73-2,61.18.16,2.33-.8,2.9-2.39,3.55-2.07.84-4.25.66-6.41.65-12.83,0-25.65.19-38.47-.05-11.34-.22-22.59,1.67-33.92,1.06-2.32-.12-4.67.16-6.94-.55a2.09,2.09,0,0,0-2.92-.16c-4.7,1.06-9.46.44-14.2.57-.61,0-1.22.05-1.83.11-5.73,1.53-11.59.94-17.4,1-8.66.07-17.32,0-26,0a11.75,11.75,0,0,1-5.37-.85c-1.71-2.45.63-2.7,1.92-3.16a67.15,67.15,0,0,0,8.86-3.35c7.17-3.8,7.7-7.9,1.67-13.47-3.09-2.86-6.79-4.79-10.44-6.79-4.67-2.56-9.33-5.14-13.82-8-5.47-3.5-7.77-8.41-7.25-14.83.44-5.5,1.77-10.84,2.89-16.21,2.17-10.37,3-20.74,1-31.23a27.58,27.58,0,0,0-4.34-11.07,19.12,19.12,0,0,1-3.36-7.74c-2.1-11.8-4-23.64-2.92-35.7.6-6.94-1-13.79-.41-20.72-.37-.64-1.15.17-.54-.1.25-.11.41,0,.42.26a426.26,426.26,0,0,1-.58,48.75c-.45,6.16-.11,12.32-.33,18.47-.08,2.26.5,4.74-1.61,6.51C56.87,364,57,369,55.83,373.55c-3.53,14.21-2.56,29.08-5.38,43.32-4.31,21.75-1.23,43.76-3.79,65.51-.71,6-2.47,11.35-8.06,14.62a82.35,82.35,0,0,1-29.91-2C1,488.29,2.58,479.33,2.51,470.63c-.1-12.91,3.48-25.24,5.34-37.84C10.21,416.89,9.55,401,9.09,385c-.09-3-.38-6-.4-9-.08-13.12-.07-26.23-.14-39.35S11.5,311,13,298.18c1.91-16,4.14-31.92,4.56-48,.59-22.28,6.1-42.88,19.53-61,7.94-10.72,17.91-18.51,30.73-22.69,13-4.25,25.3-10.15,36-18.79,3.7-3,6.06-3.76,8.74.53,2.14.31,3.4,1.94,4.91,3.21,14.44,12.13,40.93,9.9,53.33-4.43C172.38,145.17,173.55,142.67,176.6,142.92Z"/><path class="cls-3" d="M156.15,457q40.31-.66,80.6-1.26c2,0,4.36-1.06,6,1.16,5,10.22,6.08,21.32,6.83,32.37,1.7,25.05,1.75,50.16,2.28,75.25.35,16.42,2.38,32.87,1.57,49.26-.92,18.81.23,37.64-1,56.38-.83,12.66.1,25.31-.89,37.89-1.66,21-.36,41.93-.86,62.89-1.37,2.65-4.11,3.13-6.53,4.13-5.85,2-11.72,1.51-17.58.12-3.35-.1-2.56,1.88-1.65,3.58,1.41,2.64,3.1,5.13,4.63,7.69a66.4,66.4,0,0,1,9.58,30.59c.73,11.72,3.57,23,11.37,32.42a36,36,0,0,1,2.07,3.41c.89,17.15-.45,34.27-1.14,51.37-.48,12.08-.81,24.2-1.78,36.27q-1.53,19.07-3,38.14c-.3,4-4.06,4.44-6.25,6.5-2.25,3.7-6.29,4.26-9.85,4.76-6.5.91-13.11,1-19.37-1.76a7.89,7.89,0,0,1-2.48-2.12c-9.71-3.16-6.41-11.37-5.68-17.38,1.32-10.73-.31-21.25-.89-31.77a265.38,265.38,0,0,0-3.38-30.53c-1.85-10.75-2.9-21.63-4.29-32.45-1.28-10-2.53-20-3.82-30a189.89,189.89,0,0,1-.94-29.87c.36-11.76,2.61-23.43,1.93-35.26-.85-14.71-2.25-29.36-3.69-44-1.87-19.11-5.91-37.91-7.35-57-.14-2-.56-3.92-.86-5.87.79-5.47-.09-10.9-.65-16.29-1.54-14.69-2.52-29.45-4.81-44.05C170,584,165.77,556.34,160.07,529a35,35,0,0,0-6.85-14.77c-1-1.83-.91-3.84-1-5.83a368.82,368.82,0,0,1,2.05-47.58C154.45,459.31,154.47,457.76,156.15,457Z"/><path class="cls-3" d="M88.65,458c16.61.16,33.22.11,49.82-.58,2.85,3.75,1.53,8,1.2,12a189,189,0,0,0,.49,39.29c.56,4.34,4,5.73,7.59,5.69,4,0,5,1.73,5.46,5.31,1.06,8.38,1,16.9,3,25.17.35,1.5.61,3-.7,4.17-2.71,6.92-2.37,14.37-2.6,21.48-.44,13.78-1.84,27.48-2.56,41.22-.91,17.21-1.56,34.46-2.92,51.63-.67,8.32-.82,16.6-.69,24.89.11,7-1.54,13.92-1,20.88,1.12,15.28.18,30.62,1.14,45.87,1.65,26.23,3.67,52.42,8.49,78.38C159,853,159.6,873,158.49,892.94a302.46,302.46,0,0,1-5.39,43.78,130.76,130.76,0,0,0-2.29,24.69c-.09,7-1.42,13.89-1.13,20.87.08,1.82-1.2,2.61-2.1,3.74-4.07,3.76-9.2,4.38-14.31,4.26-6.73-.16-13.55-.4-19.55-4.18-5.4-2.43-5-8-5.79-12.29-3.39-19.12-6.48-38.31-9.12-57.56-1.52-11.08-2.25-22.28-4.1-33.33-.33-9.93,5.23-17.16,11-24.4a96.87,96.87,0,0,0,10.63-15.7c2.35-4.6,2.81-9.27.8-14-4.55-10.63-5-21.23-.7-32.06,1.74-4.35,2.24-9.06,2.78-13.69.61-5.3.32-5.46-4.81-4-6.73,2.16-13.56,1.84-20.42.92-2.09-.61-4.43-.42-6.22-2-.83-16.19-3.31-32.22-4.79-48.34-1.19-13-2.92-25.94-4.4-38.91-1.65-14.43-4.27-28.75-6.08-43.17-2.32-18.34-6.57-36.36-8.07-54.87C63,575.35,62.53,558,62.67,540.54c.07-9.31-1.47-18.65-.79-27.84,1.12-15.14.3-30.25.75-45.36.07-2.5,0-5-.06-7.49a2,2,0,0,1,1.94-1.9c7.18-.53,14.3-2.11,21.56-1.24A3.76,3.76,0,0,1,88.65,458Z"/><path class="cls-4" d="M309.85,394c-1.64-3-1.17-6-.06-9.12,4-11.24,7.9-22.53,11.83-33.79,8.52-22.83,16.85-45.72,24.14-69,1.61-5.14,5.9-8.11,12.3-8.11q37.45,0,74.91,0h70.42c10.09,0,14.34,5.79,11,15.15q-17.41,49.49-35,98.9c-1,2.87-1.85,6.11-4.77,8-3.9,1.32-7.91.55-11.85.49-9.11-.15-18.24.85-27.31-.59-3.46-2-1.4-5.85-2.81-8.81-1.57.52-1.44,1.94-1.66,3.08-.48,2.44-.75,4.94-1.41,7.34-.53,1.91-1.65,3.48-3.88,3-2.46-.5-2.21-2.62-1.95-4.43a45.13,45.13,0,0,0,.45-8c-.06-1.43.32-3-1.28-4.44-1.43,2.28-1.24,4.84-1.73,7.16s-.78,4.93-1.45,7.34c-.52,1.86-1.42,3.61-3.66,3.39-2.7-.26-2.11-2.5-2.05-4.26.12-3.46.58-6.93-.53-10.87-2.39,1.67-2.17,3.93-2.58,5.89-.57,2.75-.65,5.65-2.14,8.14a3.2,3.2,0,0,1-3.26,1.88c-1.62-.26-1.84-1.71-2.07-3-.37-2.11.55-4.27-.15-6.68-2.69.07-3.56,3.06-5.85,3.43a22.08,22.08,0,0,1-5.95.5c-24.58,0-49.15,0-73.72,0C315,396.55,311.69,397.4,309.85,394Z"/><path class="cls-5" d="M110.89,41c3.14-1.9,3.06-5.6,4.5-8.41,3-5.93,7.08-8.73,14.08-8.95,10.49-.33,21-1.06,31.38.41,10.7,1.52,19.45,7,26.85,14.73,1.43,5.88,1.15,11.76.35,17.73-1,7.19-2.85,14.29-2.38,21.65.11,1.6.41,3.35-.85,4.75-1.58,2.93-1.69,6.29-2.82,9.36-3.18,8.67-8.52,10.8-16.18,5.87-3.69-2.37-6.95-2.67-10.67-.47a16.62,16.62,0,0,1-17.13.53c-5-2.59-10.42-1.73-15.71-1.9-6.46-.21-9.32-2.25-11.55-8.24.18-13.91-1.07-27.84.78-41.71A9.72,9.72,0,0,0,110.89,41Z"/><path class="cls-6" d="M146.75,1015.93c1.78.1,2.17,1.27,2,2.75-.92,10.55,2.22,20.71,3.1,31.09.49,5.74-.33,11.26-4.16,15.32-16.65,17.62-34.5,33.61-59.07,39.41a34.16,34.16,0,0,1-13.87.35c-9.28-1.66-12.32-14.09-5.7-22.62,4.47-5.76,9-11.45,13.55-17.17-.39-1.17.36-1.47,1.25-1.5,6.13-.17,12.2,0,17,3.31-4.4-3.84-10.71-2.6-16.34-3.94,3-1.42,2.85-5.65,6.07-6.9,4.12,1.13,8.53-.18,12.58,1.54,1.7.72,3.63.93,4.31,1.6a25.94,25.94,0,0,0-11-2.73c-1.71,0-3.6.79-5.14-.67l4.45-5.84a27.61,27.61,0,0,1,18.67,1.85c-5.23-3-11.28-2.42-17.12-3,3.38-4,6.5-8.37,10.23-12.06a12.92,12.92,0,0,0,4.06-11.09c-.25-3,.08-5.94-.08-8.91-.12-2.3,1-2.87,3-2.78a6.41,6.41,0,0,1,4.36-.12,68,68,0,0,0,23.58,1.24A5.39,5.39,0,0,1,146.75,1015.93Z"/><path class="cls-6" d="M240.77,1010.88c1.85.11,2.16,1.47,1.87,2.81-2.45,11.47,5.26,18.22,11.73,25.58,1.08,1.23,2.09,2.52,3.14,3.78-6.57.87-12.73,2.73-17.23,6.73,4.92-3.33,10.43-7,17.68-5.83l4.56,5.11c-4.54,1.77-9.62,2.13-13.56,5.46a32.55,32.55,0,0,0-4.27,4.12c5.47-6,11.49-8.86,18.94-8.61,1.37,1.63,2.75,3.26,4.12,4.9-5.25,2.29-11.16,3.15-15.49,7.4-.63.23.39.66-.09.2-.07-.08,0-.21.28-.38,3.57-2.43,7.19-4.78,11.52-5.66,1.93-.4,3.91-1.09,5.67.51,6,5.94,13.06,10.86,17.43,18.27,3.21,5.42,4.33,11.35.67,16.93-3.8,5.78-10.06,6.79-16.32,6.25-18.26-1.56-32.6-11.29-45.71-23.07-7-6.31-13.79-13-18.74-21.21-3.46-5.75-4.45-11.63-2.25-18.06a52.41,52.41,0,0,0,3-19.53c-.08-1.86-.86-4,.85-5.66a5.67,5.67,0,0,1,4.7-.95c8.5,1.4,17,2.39,25.59.53A3.38,3.38,0,0,1,240.77,1010.88Z"/><path class="cls-7" d="M88.65,458c-7.2.26-14.4.49-21.6.83-1.51.07-3.33-.77-4.48,1-2.42-.09-1.82-2-1.83-3.3-.11-13.76-.16-27.52-.23-41.28q-.87-25.77,0-51.54c0-1.14-.05-2.28-.07-3.42l2.37-75.1c.21,6.65,1.93,13.18,1.78,19.82a182.2,182.2,0,0,0,3.09,37.08,21.3,21.3,0,0,0,3.86,8.5c3.94,5.59,4.55,12.32,5.08,18.94,1,12.1-2.11,23.71-4.48,35.38-1.93,9.44-.63,13.43,7.4,18.53,5.88,3.73,12,7.17,18.1,10.44a30.19,30.19,0,0,1,7.32,5.93c4.15,4.23,3.36,9.19-1.66,12.36C98.76,455.06,93.48,455.91,88.65,458Z"/><path class="cls-8" d="M87.73,778.06c2,.19,4.1-.76,5.9.78a29.61,29.61,0,0,0,21-.8l5.69-2.47a44.29,44.29,0,0,1-2.79,21.87c-4.17,10.9-3.46,21.27,1.14,31.77,3.11,7.11-.14,13.28-3.92,19a146.19,146.19,0,0,1-9.18,12.31,50.44,50.44,0,0,0-10.87,22.35C93.42,868.45,92,854,90.86,839.5c-.9-11.37-1.67-22.76-2.15-34.15C88.33,796.26,86.94,787.19,87.73,778.06Z"/><path class="cls-9" d="M110.76,88.08c3.33,5.61,8.08,7.79,14.65,6.82a21.38,21.38,0,0,1,14.4,2.77A11.88,11.88,0,0,0,153,97.25c5-3.34,9.35-3.72,14.41.37s8.83,2.53,12.25-3c2.29-3.7,1.65-8.58,5.12-11.7-1.09,11.24-4.73,21.71-9.44,31.87-7,20.73-36.07,28.08-52.81,13.34-3.88-3.42-7.37-7.17-8.83-12.36C110.43,106.8,108.79,97.63,110.76,88.08Z"/><path class="cls-5" d="M113.74,115.78c1.8,2.35,3.49,4.8,5.42,7,14.53,16.88,37.76,16,51.86-2,1.52-1.93,2.91-4,4.36-6q.09,11.45.19,22.88c0,1.81-.24,3.68,1,5.24-5.3,5.16-10,10.91-17.31,13.74-17,6.65-33.48,6.56-46.72-8.46,1.79-2.55.83-5.45.9-8.17C113.67,132,113.66,123.87,113.74,115.78Z"/><path class="cls-10" d="M8.69,495c8.72.32,17.44.66,26.16.95A6.77,6.77,0,0,1,38.6,497c-1.54,8.24-4,16.57,3,23.82a13.15,13.15,0,0,1,2.72,4.7c.66,1.88,1,4.15-1.34,5.21-1.94.88-3.46-.22-4.68-1.83-2.49-3.32-5.05-6.58-7.6-9.86-1.4-1.79-3-3.42-5.41-1.8-2.19,1.47-2,3.69-1.11,5.83,1.78,4.47,4,8.8,5.36,13.39,1.13,3.86,4.26,8.83-2.85,10.73.95,5.12-6.94,4.2-6.39,9.67.26,2.61-2.91,2.52-5.07,1.39-1.86-1-2.76-2.82-3.67-4.57A108.12,108.12,0,0,1,.12,518.43c-.82-5.81,2.68-11.15,4.77-16.51A58.32,58.32,0,0,1,8.69,495Z"/><path class="cls-11" d="M398.53,395a30,30,0,0,1,1.77-3c.9-1.23,2-2.44,3.74-1.71s1.8,2.28,1.42,3.83c-.61,2.49-2,6.66.24,7,3.85.63,2.63-4.07,3.46-6.46a45.38,45.38,0,0,0,1.47-7.77c.27-1.67.94-3,2.84-2.73s2.19,1.79,2.18,3.37c0,3.33-.07,6.65,0,10,0,1.1-1.79,2.79.54,3.17,1.88.3,2.28-1.39,2.51-3,.61-4.24,1.39-8.47,2-12.72.25-1.88.15-4,2.77-3.79,2.2.15,2.34,2.06,2.27,3.77-.18,4,.6,8-.73,11.88-.36,1.05-.6,2.51,1,2.85s2.41-.78,2.64-2.26c.53-3.43.89-6.89,1.59-10.28.26-1.28.37-3.23,2.57-3.05s2,1.92,2,3.37c.05,2.5,0,5,0,7.49.83,3.07-.08,5.41-2.93,6.93-3.85,5.34-9,9.21-14.43,12.77-3.36,2.19-7.17,2.57-10.9,2.79-11.2.66-22.5,2.18-33.42-1.91-2-.76-4.8-1.1-4.37-4.43-1.42-3.6.39-6.53,2-9.52,3.92-1.87,8.13-1.14,12.16-.94C388.92,401,394.55,400.5,398.53,395Z"/><path class="cls-8" d="M244.59,773.88l6.08-2.91c1.81,27.29,2.49,54.6,1.89,81.94-9.15-7.45-12.23-17.95-13.81-28.88-1.68-11.63-2.1-23.48-8.52-33.87-2.44-3.95-5.07-7.8-7.29-11.86-1.91-3.5-1.32-4.17,2.81-4.07a36,36,0,0,0,14.56,1.22C241.79,775.27,243.69,775.78,244.59,773.88Z"/><path class="cls-12" d="M398.53,395c-1.48,5.37-4.73,7.6-10.52,7.09s-11.49-.06-17.24,0c-2,1.58-4.36,1.52-6.68,1.49-14-.21-28,.74-41.88-1.06a8.55,8.55,0,0,0-3.48.19c-11.76-1.61-23.57-.36-35.36-.67-8.64-.22-17.3-.07-26,0-2.87,0-5.68-.27-5.64-3.93,0-3.82,3.23-2.94,5.59-3.12,6.08-.46,12.23,1,18.25-.78a.58.58,0,0,1,.93-.14c1.69,1.61,3.79.89,5.7.9,7.63.07,15.26,0,22.9,0,1.6,0,3.35.47,4.71-.92,1.94,1.37,4.16,1,6.29,1Q357.33,395,398.53,395Z"/><path class="cls-11" d="M146.75,1015.93c-10.88,1.84-21.63,1.68-32.17-2,.72-9-.84-18-.77-27,4,.16,7.7,1.78,11.69,2.23a49.85,49.85,0,0,0,22-2.22C147.47,996.63,146.07,1006.25,146.75,1015.93Z"/><path class="cls-8" d="M154.38,514.2c5.88,5,6.86,12.26,8.11,19.18,4.49,25,9.06,50,12.92,75.09,2.1,13.68,3.53,27.49,4.41,41.35.37,5.79.84,11.56.79,17.35,0,1.59.59,3.36-.87,4.71A486.58,486.58,0,0,0,168,605.7c-.47-1.92-.8-3.87-1.2-5.81.24-6.55-2.39-12.53-3.76-18.75a473.33,473.33,0,0,1-9.72-60.21C153.08,518.66,152.83,516.25,154.38,514.2Z"/><path class="cls-7" d="M276.54,394.05a2.11,2.11,0,0,0-.93.14c-9.23-3.24-18.45-6.49-26.92-11.52-1.76-14.55-1.27-29.1-.3-43.69a298.88,298.88,0,0,1,3.29-31.06c1.39-8.06,3.06-16.08,4.61-24.11l1.4.25c-1.15,7.54-2.23,15.09-3.45,22.62-.94,5.81-2.12,11.18,1.48,17.05,4.28,7,1.93,14.48-1.79,21.3-.86,1.58-1.64,2.75-.3,4.44,6,7.63,7.13,16,4.31,25.28-2.08,6.82-1.76,6.81,5.44,8.39s14,3.91,18.78,10.26C280.13,394.48,278.28,393.77,276.54,394.05Z"/><path class="cls-10" d="M240.77,1010.88c-8.85,3.84-17.85,1.83-26.83.73l-5.38-.69.15-24.85,1.95.84c8,4.61,16.29,3.82,24.71,1.51,1.71-.48,3.19-1.79,5.14-1.45Z"/><path class="cls-13" d="M154.38,514.2c1.34,27.65,6.68,54.68,12.67,81.6.32,1.4,1.22,2.83-.29,4.09C162.88,583,158.2,566.23,155.52,549c-2.17-10.21-3-20.59-3.73-31-.16-2.44-1.08-2.34-3-2.25-6.68.29-9.57-2.49-10.26-9.25-1.3-12.74-1-25.48-.15-38.23.24-3.63.1-7.29.13-10.93l1.55-.1c1.62,2.41,1,5.15,1.13,7.78.41,13-.86,26,.86,38.94a12.73,12.73,0,0,0,1.24,4.8,4,4,0,0,0,4.1,2.25c2.23-.22,2.46-1.92,2.66-3.61a22.72,22.72,0,0,0,.12-3.5c-.4-13.35.75-26.62,2.1-39.88.25-2.49.46-5,2.3-7,.5-.83,1.05-.63,1.62-.09a395.27,395.27,0,0,0-2.48,54.39C153.69,512.4,153.57,513.42,154.38,514.2Z"/><path class="cls-2" d="M318.73,402.71c1-.82,2.17-.71,3.32-.7l48.72.08c.28,3.25-1.69,6-2.13,9-1.88,2.11-3.95,2.12-6.64,1.36C347.75,408.5,333.42,404.77,318.73,402.71Z"/><path class="cls-12" d="M431.76,401.91c1.84-2,1.74-4.71,2.93-6.93,11.41,0,22.82,0,34.23,0,2,0,4-.08,5.76,1,.58,4.61-1.57,6.13-6,6.05C456.35,401.85,444.06,401.94,431.76,401.91Z"/><path class="cls-14" d="M240.51,987c-9.09,5.53-18.62,5-28.32,2.07-1-.3-2.6-.29-1.53-2.13,10.13,3.12,20.09,3.41,29.75-1.72C240.44,985.78,240.47,986.37,240.51,987Z"/><path class="cls-2" d="M60.52,363.73v51.54A321.34,321.34,0,0,1,60.52,363.73Z"/><path class="cls-15" d="M147.54,987c-11.25,5.08-22.49,4.07-33.73,0a1.61,1.61,0,0,1-.09-.87c3.38.64,6.79,1.14,10.13,1.93,8.15,2,16,.84,23.73-2A2.08,2.08,0,0,1,147.54,987Z"/><path class="cls-16" d="M269.64,1057c-8.21-.74-14.32,3.66-20.42,8.19,4.55-6.36,11.09-9.1,18.53-10.26A1.71,1.71,0,0,1,269.64,1057Z"/><path class="cls-16" d="M97.4,1048.78a24.11,24.11,0,0,1,20.84,5.3c-6.9-4.57-14.67-4.23-22.39-4.15C95.92,1048.94,96.76,1049,97.4,1048.78Z"/><path class="cls-16" d="M84.59,1062.93c11.46,0,13.44.57,19.29,5.59-6.87-2.55-13.58-6.17-21.24-3.46-.57-.17-1.5-.18-1.1-1.08C82.12,1062.67,83.5,1063.11,84.59,1062.93Z"/><path class="cls-16" d="M258,1044c-7.89.34-14.51,3.69-20.51,8.53,5.14-6.38,11.66-9.85,20.06-9.43Z"/><path class="cls-16" d="M263.63,1050c-7.07,1.33-14,3.08-19.15,8.68,4.46-6.18,10.6-9.14,18-9.65Z"/><path class="cls-16" d="M91.4,1055.77c4.88.56,10-.58,14.6,2,1.55.85,3.46,1.17,4.23,3.47-5.94-4.2-13.1-3.25-19.57-5.17A1.82,1.82,0,0,1,91.4,1055.77Z"/><path class="cls-3" d="M154.53,457.12c-1.94,16.66-3.29,33.36-2.95,50.17,0,2.41,1.12,5.61-3.31,5.78-3.82.13-6.63-1-7.42-5a49.47,49.47,0,0,1-1-8.4c-.36-14.13-.52-28.26.13-42.38Z"/><path class="cls-17" d="M207.75,484.71a19.33,19.33,0,0,1,0-3.49c.54-3,1.16-4.54,5-2.36,7.77,4.42,16,8.08,25.26,8.18,1.4,0,3.28.41,1.65,2.16-3.93,4.21-7.42,9.07-13.42,10.73C215.53,502.91,207.59,496.43,207.75,484.71Z"/><path class="cls-18" d="M244.59,773.88c2.95,1.75-.54,1.77-.68,1.79-6.15.86-12.31,1.57-18.16-1.45C232,774.55,238.35,775.92,244.59,773.88Z"/><path class="cls-17" d="M106.64,488.13c.15,7.07-.81,13.5-7.94,17.42-5.5,3-10.33.64-15.21-1.25a42.26,42.26,0,0,1-6.87-4c-2-1.27-1.73-2.74.15-3.77,9-4.93,18.08-9.78,27.13-14.66,1.94-1,2.77-.34,2.74,1.75C106.62,485.13,106.64,486.63,106.64,488.13Z"/><path class="cls-19" d="M114.64,778c-6.86,4.24-13.86,4.37-21,.8A64.18,64.18,0,0,0,114.64,778Z"/><path class="cls-20" d="M424.64,344c-.08,3.72-4.46,7.91-8.18,7.85-4.73-.08-7.87-3.44-7.83-8.38,0-3.94,4.07-8.3,7.66-8.29C420.63,335.22,424.74,339.56,424.64,344Z"/><path class="cls-21" d="M430.65,332.8c-.14,2.23-1.16,3.81-3.2,4a3.23,3.23,0,0,1-3.62-3.29c-.07-2.07,1.47-3.28,3.53-3.46A2.82,2.82,0,0,1,430.65,332.8Z"/><path class="cls-22" d="M153.84,104.37c-6.29,7.23-12.49,7.12-18,0C141.82,106.31,147.46,107,153.84,104.37Z"/></g></g></svg>